<svg xmlns="http://www.w3.org/2000/svg" xmlns:xlink="http://www.w3.org/1999/xlink" width="500" zoomAndPan="magnify" viewBox="0 0 375 374.999991" height="500" preserveAspectRatio="xMidYMid meet" version="1.0"><defs><g/><clipPath id="id1"><path d="M 102.234375 66.164062 L 272.484375 66.164062 L 272.484375 236.414062 L 102.234375 236.414062 Z M 102.234375 66.164062 " clip-rule="nonzero"/></clipPath><clipPath id="id2"><path d="M 125 81 L 242 81 L 242 208 L 125 208 Z M 125 81 " clip-rule="nonzero"/></clipPath><clipPath id="id3"><path d="M 130.375 211.101562 L 123.859375 84.519531 L 275.90625 76.695312 L 282.425781 203.277344 Z M 130.375 211.101562 " clip-rule="nonzero"/></clipPath><clipPath id="id4"><path d="M 130.375 211.101562 L 123.859375 84.519531 L 275.90625 76.695312 L 282.425781 203.277344 Z M 130.375 211.101562 " clip-rule="nonzero"/></clipPath><clipPath id="id5"><path d="M 130.367188 210.960938 L 123.863281 84.570312 L 236.027344 78.796875 L 242.535156 205.1875 Z M 130.367188 210.960938 " clip-rule="nonzero"/></clipPath><clipPath id="id6"><path d="M 130.367188 210.960938 L 123.867188 84.667969 L 236.035156 78.894531 L 242.535156 205.1875 Z M 130.367188 210.960938 " clip-rule="nonzero"/></clipPath><clipPath id="id7"><path d="M 184 111 L 282 111 L 282 180 L 184 180 Z M 184 111 " clip-rule="nonzero"/></clipPath><clipPath id="id8"><path d="M 130.375 211.101562 L 123.859375 84.519531 L 275.90625 76.695312 L 282.425781 203.277344 Z M 130.375 211.101562 " clip-rule="nonzero"/></clipPath><clipPath id="id9"><path d="M 130.375 211.101562 L 123.859375 84.519531 L 275.90625 76.695312 L 282.425781 203.277344 Z M 130.375 211.101562 " clip-rule="nonzero"/></clipPath><clipPath id="id10"><path d="M 186.628906 184.859375 L 182.898438 112.375 L 277.738281 107.492188 L 281.46875 179.976562 Z M 186.628906 184.859375 " clip-rule="nonzero"/></clipPath><clipPath id="id11"><path d="M 186.628906 184.859375 L 182.898438 112.375 L 277.503906 107.503906 L 281.238281 179.988281 Z M 186.628906 184.859375 " clip-rule="nonzero"/></clipPath><clipPath id="id12"><path d="M 138 83 L 210 83 L 210 144 L 138 144 Z M 138 83 " clip-rule="nonzero"/></clipPath><clipPath id="id13"><path d="M 130.375 211.101562 L 123.859375 84.519531 L 275.90625 76.695312 L 282.425781 203.277344 Z M 130.375 211.101562 " clip-rule="nonzero"/></clipPath><clipPath id="id14"><path d="M 130.375 211.101562 L 123.859375 84.519531 L 275.90625 76.695312 L 282.425781 203.277344 Z M 130.375 211.101562 " clip-rule="nonzero"/></clipPath><clipPath id="id15"><path d="M 130 136 L 200 136 L 200 201 L 130 201 Z M 130 136 " clip-rule="nonzero"/></clipPath><clipPath id="id16"><path d="M 130.375 211.101562 L 123.859375 84.519531 L 275.90625 76.695312 L 282.425781 203.277344 Z M 130.375 211.101562 " clip-rule="nonzero"/></clipPath><clipPath id="id17"><path d="M 130.375 211.101562 L 123.859375 84.519531 L 275.90625 76.695312 L 282.425781 203.277344 Z M 130.375 211.101562 " clip-rule="nonzero"/></clipPath><clipPath id="id18"><path d="M 132.335938 159.152344 L 242.886719 159.152344 L 242.886719 258.941406 L 132.335938 258.941406 Z M 132.335938 159.152344 " clip-rule="nonzero"/></clipPath><clipPath id="id19"><path d="M 132.011719 189 L 242 189 L 242 274.652344 L 132.011719 274.652344 Z M 132.011719 189 " clip-rule="nonzero"/></clipPath></defs><rect x="-37.5" width="450" fill="#ffffff" y="-37.499999" height="449.999989" fill-opacity="1"/><rect x="-37.5" width="450" fill="#ffffff" y="-37.499999" height="449.999989" fill-opacity="1"/><rect x="-37.5" width="450" fill="#ffffff" y="-37.499999" height="449.999989" fill-opacity="1"/><g clip-path="url(#id1)"><path fill="#000000" d="M 187.359375 66.164062 C 140.34375 66.164062 102.234375 104.277344 102.234375 151.289062 C 102.234375 198.304688 140.34375 236.414062 187.359375 236.414062 C 234.371094 236.414062 272.484375 198.304688 272.484375 151.289062 C 272.484375 104.277344 234.371094 66.164062 187.359375 66.164062 " fill-opacity="1" fill-rule="nonzero"/></g><g clip-path="url(#id2)"><g clip-path="url(#id3)"><g clip-path="url(#id4)"><g clip-path="url(#id5)"><g clip-path="url(#id6)"><path fill="#ffffff" d="M 131.574219 121.054688 C 131.574219 121.054688 134.324219 114.496094 133.726562 109.492188 C 133.128906 104.488281 125.613281 99.230469 125.097656 106.871094 C 124.578125 114.511719 131.574219 121.054688 131.574219 121.054688 C 131.574219 121.054688 128.277344 116.125 127.816406 113.933594 C 127.816406 113.933594 129.875 115.960938 130.597656 118 C 130.597656 118 129.613281 113.855469 130.121094 112.601562 C 130.121094 112.601562 131.777344 116.246094 131.664062 117.820312 C 131.664062 117.820312 132.109375 115.007812 132.691406 114.007812 C 132.691406 114.007812 132.191406 119.324219 131.574219 121.054688 Z M 185.835938 82.515625 C 185.835938 82.515625 198.292969 86.359375 202.097656 97.015625 C 202.097656 97.015625 209.632812 103.480469 208.972656 110.503906 C 208.972656 110.503906 211.890625 104.292969 200.886719 90.6875 C 200.886719 90.6875 206.453125 95.355469 208.75 95.773438 C 208.75 95.773438 203.675781 91.550781 202.179688 89.003906 C 200.683594 86.453125 193.203125 83 185.835938 82.515625 Z M 141.027344 144.03125 C 142.203125 142.863281 148.742188 136.105469 150.714844 130.644531 C 152.6875 125.183594 157.824219 106.011719 173.132812 94.074219 C 188.445312 82.136719 200.816406 96.148438 200.816406 96.148438 C 200.816406 96.148438 196.351562 86.855469 184.285156 83.105469 C 172.21875 79.351562 159.351562 85.25 147.859375 96.503906 C 136.371094 107.753906 132.679688 121.519531 130.542969 125.394531 C 128.40625 129.273438 129.492188 135.070312 128.855469 137.570312 C 127.976562 141.015625 130.953125 145.929688 133.160156 147.34375 C 136.109375 149.234375 139.851562 145.199219 141.027344 144.03125 Z M 185.921875 164.085938 C 185.121094 165.371094 181.144531 165.117188 181.144531 165.117188 C 182.832031 165.449219 187.617188 168.777344 187.617188 168.777344 C 185.511719 169.683594 181.203125 166.058594 181.203125 166.058594 C 183 167.945312 184.34375 170.601562 184.34375 170.601562 C 182.921875 170.382812 180.738281 166.984375 179.511719 164.890625 C 180.148438 167.4375 181.804688 172.515625 185.078125 173.449219 C 189.476562 174.703125 194.660156 175.390625 194.824219 175.53125 C 194.988281 175.667969 193.328125 167.785156 188.664062 164.457031 C 187.210938 163.417969 185.25 163.085938 183.492188 163.042969 C 184.863281 163.492188 185.921875 164.085938 185.921875 164.085938 Z M 154.695312 175.566406 C 154.695312 175.566406 155.148438 173.304688 155.609375 172.023438 C 154.914062 173.386719 153.34375 176.117188 151.898438 176.195312 C 151.898438 176.195312 152.621094 173.507812 154.171875 171.148438 C 146.808594 175.230469 146.46875 185.125 146.46875 185.125 C 147.234375 184.222656 152.359375 182.789062 154.425781 180.125 C 156.03125 178.050781 156.636719 173.082031 156.828125 170.984375 C 156.203125 172.660156 155.375 174.59375 154.695312 175.566406 Z M 222.238281 190.664062 C 220.574219 194.160156 218.804688 196.535156 218.804688 196.535156 C 220.054688 196.367188 225.578125 192.941406 225.578125 192.941406 C 224.324219 194.410156 222.238281 195.855469 220.058594 197.117188 C 225.148438 195.910156 233.535156 192.195312 241.28125 180.882812 C 241.28125 180.882812 236.652344 184.09375 233.554688 184.460938 C 233.554688 184.460938 236.769531 179.09375 236.777344 171.015625 C 236.777344 171.015625 231.488281 181.917969 226.550781 184.554688 C 226.550781 184.554688 226.023438 181.847656 226.140625 177.867188 C 226.140625 177.867188 222.277344 187.070312 218.839844 192.992188 C 220.726562 191.59375 222.238281 190.664062 222.238281 190.664062 Z M 158.875 179.226562 C 156.085938 169.113281 154.691406 157.144531 159.042969 147.917969 C 163.398438 138.6875 166.910156 142.984375 171.4375 146.410156 C 175.964844 149.835938 177.699219 156.570312 177.765625 162.773438 C 177.835938 168.976562 181.535156 187.234375 198.539062 196.332031 C 215.539062 205.429688 231.800781 193.558594 231.800781 193.558594 C 192.441406 227.042969 161.996094 190.542969 158.875 179.226562 " fill-opacity="1" fill-rule="nonzero"/></g></g></g></g></g><g clip-path="url(#id7)"><g clip-path="url(#id8)"><g clip-path="url(#id9)"><g clip-path="url(#id10)"><g clip-path="url(#id11)"><path fill="#ffffff" d="M 215.238281 150.152344 C 211.039062 149.523438 208.136719 150.667969 207.234375 150.542969 C 209.039062 150.640625 213.800781 153.796875 213.800781 153.796875 C 211.179688 153.609375 207.234375 150.542969 207.234375 150.542969 C 207.007812 150.511719 212.425781 156.503906 219.953125 158.542969 C 219.953125 158.542969 219.4375 150.78125 215.238281 150.152344 Z M 199.285156 120.347656 C 197.175781 124.621094 199.425781 128.925781 199.425781 128.925781 C 199.425781 128.925781 198.515625 124.445312 199.789062 121.597656 C 199.789062 121.597656 199.652344 124.21875 200.015625 125.464844 C 200.015625 125.464844 199.921875 123.9375 202.421875 124.019531 C 202.421875 124.019531 199.703125 127.113281 199.425781 128.925781 C 200.957031 126.09375 207.707031 125.855469 208.976562 124.089844 C 210.246094 122.328125 202.648438 111.386719 202.648438 111.386719 C 202.648438 111.386719 201.390625 116.078125 199.285156 120.347656 Z M 243.273438 137.007812 C 247.882812 136.664062 253.28125 139.742188 254.910156 140.75 C 255.089844 140.847656 255.253906 140.953125 255.40625 141.0625 C 255.40625 141.0625 255.226562 140.945312 254.910156 140.75 C 252.523438 139.410156 247.71875 138.921875 247.71875 138.921875 C 252.023438 141.054688 253.46875 145.503906 253.953125 148.015625 C 254.140625 148.628906 254.234375 149.246094 254.191406 149.847656 C 254.191406 149.847656 254.164062 149.117188 253.953125 148.015625 C 252.757812 144.101562 247.601562 140.21875 247.601562 140.21875 C 249.871094 143.535156 247.800781 147.824219 247.800781 147.824219 C 249.230469 140.714844 240.820312 137.582031 240.820312 137.582031 C 240.820312 137.582031 247.8125 141.046875 245.882812 149.445312 C 243.953125 157.84375 244.933594 164.199219 245.890625 165.785156 C 245.890625 165.785156 246.175781 158.472656 250.476562 155.210938 C 250.476562 155.210938 249.179688 162.972656 256.058594 169.875 C 262.941406 176.773438 281.226562 179.8125 281.226562 179.8125 C 281.226562 179.8125 263.695312 159.859375 264.929688 152.546875 C 266.167969 145.230469 273.324219 156.390625 272.453125 160.398438 C 272.453125 160.398438 276.804688 154.785156 271.511719 148.515625 C 266.710938 142.824219 251.933594 135.976562 243.273438 137.007812 Z M 191.398438 132.753906 C 195.089844 130.539062 223.25 122.546875 234.128906 126.207031 C 245.011719 129.867188 256.8125 138.214844 256.8125 138.214844 C 241.582031 129.296875 228.53125 140.472656 222.308594 144.898438 C 216.085938 149.324219 205.804688 149.714844 199.910156 149.96875 C 194.019531 150.226562 185.558594 144.589844 185.558594 144.589844 C 182.402344 142.726562 187.710938 134.96875 191.398438 132.753906 " fill-opacity="1" fill-rule="nonzero"/></g></g></g></g></g><g clip-path="url(#id12)"><g clip-path="url(#id13)"><g clip-path="url(#id14)"><path fill="#ffffff" d="M 202.78125 95.78125 C 202.941406 96.394531 203.03125 97.140625 203.089844 97.957031 C 205.109375 99.996094 209.480469 105.078125 208.972656 110.503906 C 208.972656 110.503906 211.542969 105.03125 202.753906 93.101562 C 202.519531 93.792969 202.515625 94.765625 202.78125 95.78125 Z M 207.792969 95.453125 C 206.972656 94.410156 206.257812 93.585938 205.769531 93.097656 C 205.699219 93.03125 205.628906 92.964844 205.558594 92.894531 C 204.457031 91.886719 203.617188 91.886719 203.117188 92.449219 C 204.558594 93.539062 206.414062 94.839844 207.792969 95.453125 Z M 182.039062 83.4375 C 181.128906 82.335938 176.828125 84.976562 174.734375 85.246094 C 172.640625 85.515625 171.617188 89.011719 171.613281 89.128906 C 171.59375 92.84375 182.949219 84.539062 182.039062 83.4375 Z M 144.269531 111.523438 C 151.039062 103.277344 155.316406 99.109375 157.539062 98.8125 C 159.761719 98.515625 161.757812 93.457031 160.695312 92.171875 C 160.191406 91.5625 156.710938 91.28125 152.527344 92.300781 C 150.949219 93.601562 149.394531 95 147.859375 96.5 C 144 100.285156 141.019531 104.351562 138.683594 108.230469 C 138.933594 112.476562 140.230469 116.445312 144.269531 111.523438 Z M 141.320312 134.855469 C 139.15625 137.488281 140.40625 140.792969 141.949219 143.085938 C 144.148438 140.769531 149.007812 135.289062 150.691406 130.707031 C 148.578125 130.285156 144.222656 131.332031 141.320312 134.855469 Z M 152.265625 128.824219 C 152.265625 128.824219 158.894531 125.964844 160.328125 123.839844 C 160.328125 123.839844 157.113281 124.1875 156.078125 125.660156 C 156.078125 125.660156 158.15625 121.726562 157.691406 120.652344 C 157.691406 120.652344 155.265625 123.421875 153.53125 126.320312 C 155.308594 122.863281 158.460938 116.988281 159.644531 116.347656 C 161.328125 115.4375 168.203125 117.554688 164.074219 122.449219 C 159.945312 127.339844 152.265625 128.824219 152.265625 128.824219 " fill-opacity="1" fill-rule="nonzero"/></g></g></g><g clip-path="url(#id15)"><g clip-path="url(#id16)"><g clip-path="url(#id17)"><path fill="#ffffff" d="M 138.128906 142.347656 C 137.179688 141.070312 134.917969 143.816406 134.917969 143.816406 C 135.878906 143.777344 139.078125 143.625 138.128906 142.347656 Z M 130.761719 138.578125 C 129.597656 140 131.953125 142.359375 131.953125 142.359375 C 131.953125 142.359375 131.925781 137.15625 130.761719 138.578125 Z M 148.945312 181.949219 C 149.71875 180 151.140625 177.515625 151.0625 176.644531 C 151.042969 176.421875 150.5625 175.753906 149.820312 175.117188 C 147.8125 177.972656 147.003906 181.238281 146.679688 183.242188 C 147.777344 183.003906 148.6875 182.597656 148.945312 181.949219 Z M 183.765625 191.242188 C 185.128906 192.46875 186.765625 194.023438 190.394531 193.898438 C 194.023438 193.777344 193.484375 199.105469 195.886719 200.734375 C 197.277344 201.675781 198.816406 199.273438 199.820312 196.976562 C 199.394531 196.773438 198.964844 196.5625 198.539062 196.332031 C 191.570312 192.601562 186.835938 187.335938 183.671875 181.988281 C 182.234375 184.390625 182.628906 190.222656 183.765625 191.242188 Z M 168.292969 169.214844 C 168.621094 169.011719 172.628906 167.632812 172.21875 165.34375 C 171.8125 163.054688 176.199219 160.03125 172.585938 158.453125 C 168.976562 156.871094 166.003906 156.34375 164.859375 157.878906 C 163.71875 159.414062 164.890625 171.300781 168.292969 169.214844 Z M 172.3125 197.050781 C 174.175781 195.019531 176.375 192.304688 175.515625 191.640625 C 174.101562 190.539062 172.75 185.617188 172.566406 184.082031 C 172.382812 182.546875 172.40625 178.835938 169.457031 179.246094 C 167.554688 179.511719 163.789062 181.960938 161.375 184.601562 C 163.699219 188.441406 167.425781 193.015625 172.3125 197.050781 Z M 160.976562 148.324219 C 162.117188 148.5625 162.902344 145.710938 162.902344 145.710938 C 160.667969 145.902344 159.832031 148.085938 160.976562 148.324219 Z M 166.492188 144.921875 C 166.492188 144.921875 167.925781 148.296875 169.117188 146.921875 C 170.457031 145.371094 166.492188 144.921875 166.492188 144.921875 Z M 189.152344 136.820312 C 187.792969 136.710938 187.726562 141.003906 187.726562 141.003906 C 187.726562 141.003906 190.515625 136.929688 189.152344 136.820312 Z M 191.871094 145.976562 C 191.140625 147.175781 188.257812 143.691406 188.257812 143.691406 C 188.257812 143.691406 192.605469 144.78125 191.871094 145.976562 " fill-opacity="1" fill-rule="nonzero"/></g></g></g><g clip-path="url(#id18)"><path fill="#ffffff" d="M 239.265625 209.105469 C 239.863281 209.535156 240.726562 209.429688 241.339844 209.027344 C 243.0625 207.898438 243.878906 204.3125 240.902344 204.5 C 239.03125 204.617188 237.589844 207.898438 239.265625 209.105469 Z M 150.855469 179.980469 C 151.132812 181.289062 151.957031 182.503906 153.15625 183.097656 C 154.351562 183.6875 155.910156 183.566406 156.902344 182.671875 C 157.789062 181.871094 158.125 180.578125 157.960938 179.394531 C 157.800781 178.210938 157.195312 177.125 156.457031 176.1875 C 155.148438 174.519531 153.777344 173.519531 152.160156 175.324219 C 151.054688 176.5625 150.507812 178.34375 150.855469 179.980469 Z M 166.9375 166.636719 C 167.457031 166.65625 167.925781 166.335938 168.320312 165.992188 C 170.273438 164.285156 172.234375 158.601562 167.699219 159.195312 C 164.5 159.613281 163.195312 166.488281 166.9375 166.636719 Z M 208.023438 169.84375 C 207.703125 170.929688 207.578125 172.28125 208.433594 173.019531 C 208.816406 173.355469 209.332031 173.492188 209.828125 173.617188 C 210.226562 173.714844 210.644531 173.8125 211.050781 173.75 C 211.820312 173.636719 212.398438 172.980469 212.777344 172.300781 C 213.414062 171.160156 213.695312 169.824219 213.566406 168.523438 C 213.101562 163.734375 208.816406 167.171875 208.023438 169.84375 Z M 135.121094 212.816406 C 135.765625 212.820312 136.429688 212.671875 136.941406 212.277344 C 137.785156 211.632812 138.046875 210.421875 137.808594 209.386719 C 137.308594 207.238281 134.878906 204.292969 133.199219 207.007812 C 131.84375 209.195312 131.816406 212.78125 135.121094 212.816406 Z M 215.859375 196.269531 C 215.8125 196.84375 215.832031 197.441406 216.082031 197.960938 C 216.429688 198.675781 217.1875 199.132812 217.972656 199.246094 C 219.578125 199.472656 221.25 198.207031 221.460938 196.597656 C 222.011719 192.4375 216.246094 191.753906 215.859375 196.269531 Z M 139.441406 190.328125 C 139.613281 191.242188 140.402344 191.90625 141.210938 192.359375 C 142.167969 192.902344 143.261719 193.269531 144.351562 193.144531 C 145.441406 193.015625 146.507812 192.304688 146.824219 191.253906 C 146.941406 190.855469 146.949219 190.4375 146.957031 190.023438 C 146.976562 188.957031 147 187.894531 147.019531 186.832031 C 147.03125 186.152344 146.988281 185.351562 146.425781 184.972656 C 143.363281 182.902344 138.859375 187.230469 139.441406 190.328125 Z M 198.1875 173.28125 C 197.1875 174.476562 196.800781 176.203125 197.335938 177.671875 C 197.867188 179.136719 199.359375 180.238281 200.917969 180.183594 C 202.476562 180.125 203.929688 178.816406 204.03125 177.257812 C 204.097656 176.144531 203.527344 175.066406 202.738281 174.273438 C 201.453125 172.988281 199.652344 171.523438 198.1875 173.28125 Z M 241.324219 223.566406 C 239.5625 225.882812 236.726562 227.046875 234.238281 228.546875 C 231.746094 230.050781 229.304688 232.382812 229.351562 235.292969 C 229.382812 237.324219 230.625 239.101562 231.65625 240.851562 C 233.394531 243.808594 234.660156 247.09375 234.949219 250.511719 C 235.039062 251.585938 235.015625 252.730469 234.472656 253.660156 C 233.511719 255.296875 231.359375 255.683594 229.476562 255.886719 C 214.808594 257.457031 200.039062 257.820312 185.292969 258.183594 C 176.886719 258.394531 168.480469 258.601562 160.078125 258.808594 C 158.683594 258.84375 156.960938 259.21875 155.792969 258.460938 C 154.332031 257.511719 154.863281 256.699219 154.984375 255.699219 C 155.167969 254.984375 155.351562 254.265625 155.535156 253.546875 C 156.09375 250.941406 154.484375 248.441406 151.242188 247.046875 C 148.847656 246.019531 146.160156 245.777344 143.804688 244.65625 C 142.132812 243.863281 140.671875 242.632812 139.601562 241.121094 C 138.820312 240.015625 138.226562 238.695312 138.566406 237.300781 C 138.65625 236.941406 138.820312 236.597656 139.050781 236.3125 C 140.238281 234.859375 142.089844 235.433594 143.203125 236.503906 C 144.066406 237.332031 144.625 238.417969 145.339844 239.375 C 147.039062 241.640625 149.703125 243.15625 152.515625 243.460938 C 154.011719 243.625 155.789062 243.300781 156.5 241.972656 C 156.917969 241.1875 157.394531 238.335938 155.875 237.125 C 153.371094 235.128906 150.078125 234.222656 147.90625 231.867188 C 143.867188 227.492188 147.289062 220.054688 144.792969 214.648438 C 143.6875 212.25 141.535156 210.535156 139.8125 208.539062 C 138.089844 206.539062 136.714844 203.804688 137.613281 201.324219 C 138.21875 199.65625 139.867188 198.421875 141.632812 198.316406 C 143.402344 198.207031 145.1875 199.230469 145.992188 200.8125 C 146.855469 202.515625 146.582031 204.574219 147.125 206.40625 C 147.570312 207.917969 149.28125 209.398438 150.582031 208.507812 C 150.796875 208.359375 150.976562 208.15625 151.132812 207.941406 C 152.789062 205.683594 152.203125 202.523438 151.304688 199.871094 C 150.402344 197.21875 149.246094 194.410156 149.988281 191.707031 C 150.515625 189.789062 152.09375 188.269531 153.953125 187.597656 C 155.574219 187.015625 157.277344 188.269531 157.253906 189.992188 C 157.1875 195 157.121094 200.011719 157.054688 205.019531 C 157.039062 206.285156 157.019531 207.566406 156.652344 208.773438 C 156.21875 210.203125 155.328125 211.441406 154.585938 212.738281 C 153.152344 215.257812 152.25 218.207031 152.753906 221.058594 C 153.285156 224.066406 155.652344 226.867188 158.738281 227.113281 C 159.132812 227.144531 159.535156 227.128906 159.917969 227.023438 C 162.171875 226.394531 162.402344 223.699219 162.332031 221.535156 C 162.230469 218.5 162.128906 215.464844 162.027344 212.425781 C 161.984375 211.136719 161.949219 209.800781 162.449219 208.613281 C 162.871094 207.609375 163.640625 206.800781 164.226562 205.890625 C 166.519531 202.34375 165.917969 197.648438 164.488281 193.675781 C 163.058594 189.703125 160.882812 185.960938 160.175781 181.796875 C 159.652344 178.726562 160.128906 175.203125 162.492188 173.171875 C 163.40625 172.390625 164.648438 171.851562 165.921875 172.859375 C 166.503906 173.320312 166.886719 173.996094 167.035156 174.726562 C 167.4375 176.675781 166.550781 178.488281 166.285156 180.378906 C 166.066406 181.964844 166.464844 183.867188 167.90625 184.5625 C 169.226562 181.65625 170.582031 178.535156 170.070312 175.382812 C 169.855469 174.0625 169.316406 172.800781 169.191406 171.46875 C 168.921875 168.585938 170.835938 165.601562 173.671875 164.808594 C 174.492188 164.578125 175.386719 164.636719 176.117188 165.082031 C 177.351562 165.828125 177.328125 167.101562 177.175781 168.246094 C 176.246094 175.214844 171.304688 181.492188 171.851562 188.5 C 172.121094 192.007812 173.777344 195.433594 173.21875 198.90625 C 172.480469 203.515625 167.949219 207.679688 169.527344 212.074219 C 171.296875 213.257812 173.707031 211.589844 174.554688 209.636719 C 175.402344 207.683594 175.449219 205.414062 176.539062 203.585938 C 177.738281 201.589844 181.179688 200.609375 182.070312 203.128906 C 182.203125 203.496094 182.238281 203.890625 182.242188 204.28125 C 182.257812 207.140625 180.601562 209.671875 178.894531 211.945312 C 176.800781 214.734375 174.457031 217.566406 174.640625 221.324219 C 174.730469 223.144531 175.707031 224.859375 177.332031 225.683594 C 180.925781 227.503906 184.578125 223.6875 185.269531 219.957031 C 185.929688 216.429688 185.082031 212.742188 185.832031 209.230469 C 186.492188 206.144531 188.355469 203.34375 188.542969 200.191406 C 188.957031 193.273438 181.484375 188.410156 179.847656 181.675781 C 179.433594 179.960938 179.429688 178.0625 180.535156 176.578125 C 181.023438 175.917969 181.726562 175.425781 182.527344 175.253906 C 185.007812 174.730469 186.707031 177.234375 186.988281 179.539062 C 187.242188 181.617188 186.761719 183.738281 187.078125 185.808594 C 187.894531 191.171875 193.746094 194.925781 193.917969 200.347656 C 194.015625 203.390625 192.242188 206.277344 192.449219 209.3125 C 192.625 211.941406 194.242188 214.214844 195.25 216.644531 C 196.621094 219.953125 196.867188 223.722656 195.9375 227.183594 C 195.511719 228.769531 194.84375 230.300781 194.667969 231.933594 C 194.441406 234.066406 195.253906 236.539062 197.769531 236.921875 C 199.136719 237.128906 200.492188 236.546875 201.433594 235.535156 C 203.378906 233.441406 203.421875 230.519531 203.261719 227.808594 C 203.074219 224.699219 202.683594 221.585938 202.949219 218.480469 C 203.382812 213.453125 205.503906 208.273438 203.765625 203.535156 C 202.472656 200.007812 199.3125 197.582031 196.847656 194.746094 C 194.296875 191.816406 192.390625 187.472656 194.566406 184.152344 C 194.8125 183.777344 195.136719 183.453125 195.535156 183.253906 C 197.519531 182.261719 199.238281 184.84375 199.617188 186.957031 C 199.992188 189.039062 200.496094 191.707031 202.59375 192.085938 C 203.652344 192.273438 204.710938 191.769531 205.347656 190.90625 C 206.570312 189.261719 206.425781 187.273438 206.476562 185.367188 C 206.519531 183.71875 206.738281 182.019531 207.5625 180.589844 C 208.738281 178.554688 211.371094 177.167969 213.683594 178.988281 C 214.929688 179.972656 215.554688 181.546875 215.488281 183.136719 C 215.335938 186.636719 212.855469 189.148438 210.894531 191.835938 C 209.222656 194.125 207.832031 197.035156 208.738281 199.722656 C 209.355469 201.550781 210.941406 202.917969 211.597656 204.734375 C 212.726562 207.851562 210.871094 211.160156 210.136719 214.394531 C 209.59375 216.789062 209.675781 219.277344 209.523438 221.730469 C 209.390625 223.921875 209.078125 226.183594 209.785156 228.261719 C 210.488281 230.339844 212.636719 232.144531 214.753906 231.570312 C 216.988281 227.308594 213.683594 222.144531 214.335938 217.378906 C 214.582031 215.589844 215.488281 213.777344 217.25 213.101562 C 218.304688 212.699219 219.523438 212.839844 220.355469 213.601562 C 221.628906 214.761719 221.351562 216.636719 220.792969 218.160156 C 220.21875 219.734375 219.382812 221.328125 219.886719 223.019531 C 220.136719 223.859375 220.808594 224.539062 221.667969 224.703125 C 222.714844 224.898438 223.324219 224.261719 223.769531 223.578125 C 225.441406 221.011719 225.199219 217.660156 224.546875 214.667969 C 223.726562 210.894531 222.339844 207.09375 223.808594 203.230469 C 224.441406 201.558594 225.734375 200.179688 227.4375 199.648438 C 230.648438 198.648438 233.132812 201.019531 235.183594 203.199219 C 235.585938 203.625 236.007812 204.089844 236.097656 204.671875 C 236.179688 205.21875 235.953125 205.757812 235.71875 206.257812 C 234.726562 208.367188 233.527344 210.371094 232.136719 212.238281 C 230.398438 214.574219 228.761719 216.9375 227.898438 219.714844 C 227.34375 221.503906 227.335938 224.058594 229.378906 224.398438 C 230.597656 224.601562 231.789062 223.871094 232.265625 222.730469 C 233.261719 220.339844 234.316406 217.484375 236.859375 216.199219 C 237.699219 215.773438 238.660156 215.605469 239.582031 215.789062 C 243.007812 216.472656 243.242188 221.035156 241.324219 223.566406 " fill-opacity="1" fill-rule="nonzero"/></g><g clip-path="url(#id19)"><path fill="#ffffff" d="M 179.449219 196.617188 C 180.09375 196.621094 180.757812 196.472656 181.269531 196.082031 C 182.113281 195.433594 182.375 194.226562 182.132812 193.191406 C 181.636719 191.042969 179.207031 188.097656 177.523438 190.8125 C 176.167969 193 176.140625 196.585938 179.449219 196.617188 Z M 195.527344 200.800781 C 195.699219 201.710938 196.488281 202.375 197.292969 202.832031 C 198.25 203.371094 199.347656 203.742188 200.4375 203.613281 C 201.527344 203.488281 202.59375 202.777344 202.90625 201.722656 C 203.023438 201.328125 203.035156 200.90625 203.042969 200.492188 C 203.0625 199.429688 203.082031 198.367188 203.105469 197.300781 C 203.117188 196.621094 203.070312 195.824219 202.507812 195.441406 C 199.445312 193.375 194.945312 197.699219 195.527344 200.800781 Z M 167.382812 219.246094 C 168.132812 219.785156 169.214844 219.65625 169.984375 219.148438 C 172.144531 217.730469 173.167969 213.234375 169.433594 213.46875 C 167.089844 213.617188 165.277344 217.730469 167.382812 219.246094 Z M 240.53125 251.425781 C 239.140625 253.109375 236.882812 253.722656 234.847656 254.515625 C 231.929688 255.652344 229.148438 257.390625 227.371094 259.96875 C 225.59375 262.550781 224.984375 266.070312 226.378906 268.875 C 226.390625 268.894531 226.398438 268.917969 226.410156 268.9375 C 227.742188 271.550781 225.929688 274.652344 223 274.652344 L 157.578125 274.652344 C 154.21875 274.652344 152.449219 270.664062 154.703125 268.171875 C 154.855469 268.003906 155.015625 267.832031 155.1875 267.664062 C 156.0625 266.785156 156.65625 263.511719 152.910156 262.515625 C 152.402344 262.382812 151.878906 262.347656 151.359375 262.421875 C 148.65625 262.820312 146.921875 265.15625 144.457031 265.972656 C 141.84375 266.839844 139.015625 265.832031 136.449219 264.835938 C 134.789062 264.191406 133.046875 263.492188 132.484375 261.390625 C 132.117188 260.019531 132.449219 258.539062 133.328125 257.421875 C 135.605469 254.535156 139.992188 255.371094 141.96875 258.027344 C 142.917969 259.300781 143.402344 260.921875 144.863281 261.792969 C 145.523438 262.1875 146.347656 262.289062 147.027344 261.921875 C 148.140625 261.316406 148.132812 259.984375 148.054688 258.84375 C 147.914062 256.789062 147.765625 254.691406 146.992188 252.78125 C 146.21875 250.871094 144.695312 249.148438 142.691406 248.671875 C 141.105469 248.296875 139.214844 248.671875 138.113281 247.300781 C 137.234375 246.203125 137.402344 244.613281 138.371094 243.59375 C 140.121094 241.75 142.777344 242.101562 144.871094 243.089844 C 148.300781 244.710938 150.898438 247.992188 151.683594 251.703125 C 152.585938 255.960938 154.128906 256.316406 157.0625 255.84375 C 158.363281 255.632812 159.363281 254.566406 159.460938 253.25 C 160.140625 243.882812 155.375 234.144531 147.265625 229.308594 C 144.578125 227.703125 141.59375 226.601562 139.035156 224.796875 C 135.707031 222.445312 133.023438 218.449219 135.058594 214.171875 C 135.175781 213.925781 135.363281 213.71875 135.582031 213.558594 C 137.339844 212.289062 139.878906 212.53125 141.722656 213.679688 C 143.578125 214.839844 144.839844 216.75 145.804688 218.714844 C 146.773438 220.683594 147.507812 222.765625 148.636719 224.644531 C 150.007812 226.933594 151.949219 228.875 154.238281 230.246094 C 154.894531 230.640625 156.109375 230.867188 156.859375 230.722656 C 158.023438 229.429688 157.691406 227.335938 156.765625 225.863281 C 155.839844 224.390625 154.445312 223.269531 153.433594 221.851562 C 151.277344 218.832031 151.171875 214.492188 153.175781 211.367188 C 154.316406 209.585938 156.304688 208.144531 158.410156 208.386719 C 159.898438 208.554688 161.113281 209.660156 161.582031 211.082031 C 163.085938 215.625 159.046875 215.902344 158 218.351562 C 157.246094 220.117188 158.394531 222.101562 159.683594 223.523438 C 160.972656 224.941406 162.535156 226.34375 162.792969 228.246094 C 163.046875 230.105469 161.964844 231.871094 161.695312 233.726562 C 161.519531 234.941406 161.707031 236.207031 162.21875 237.320312 C 162.871094 238.726562 164.339844 240.007812 165.964844 239.167969 C 166.53125 238.878906 166.960938 238.371094 167.222656 237.789062 C 169.167969 233.429688 164.144531 228.039062 167.535156 224.390625 C 168.28125 223.589844 169.300781 223.09375 170.378906 222.914062 C 172.449219 222.570312 175.683594 222.675781 177.226562 224.667969 C 178.535156 226.359375 178.175781 228.839844 177.207031 230.746094 C 176.238281 232.652344 174.753906 234.261719 173.8125 236.183594 C 171.980469 239.921875 172.414062 244.324219 172.886719 248.457031 C 175.269531 250.261719 178.042969 252.777344 181.238281 250.019531 C 182.320312 249.089844 183.0625 247.816406 183.375 246.425781 C 184.382812 241.953125 181.96875 237.40625 182.933594 233.007812 C 183.429688 230.742188 184.777344 228.777344 185.75 226.671875 C 186.726562 224.570312 187.3125 222.046875 186.265625 219.980469 C 185.460938 218.394531 183.867188 217.40625 182.515625 216.257812 C 179.972656 214.089844 178.128906 211.105469 177.328125 207.859375 C 176.722656 205.40625 176.730469 202.667969 178.390625 200.601562 C 179.15625 199.652344 180.238281 198.992188 181.449219 198.855469 C 184.53125 198.511719 186.429688 201.476562 186.824219 204.257812 C 187.164062 206.675781 186.726562 209.152344 187.019531 211.582031 C 187.339844 214.265625 188.585938 216.828125 190.496094 218.742188 C 192.28125 218.636719 192.953125 217.175781 193.191406 215.402344 C 193.425781 213.625 193.273438 211.699219 194.230469 210.1875 C 195.136719 208.761719 196.9375 208.03125 198.617188 208.222656 C 200.457031 208.429688 202.105469 209.640625 203.085938 211.203125 C 203.265625 211.488281 203.417969 211.792969 203.492188 212.121094 C 203.957031 214.117188 201.988281 215.191406 200.628906 216.394531 C 199.296875 217.574219 198.40625 219.167969 197.199219 220.476562 C 195.996094 221.785156 194.234375 222.84375 192.503906 222.421875 C 191.011719 223.039062 190.207031 225.304688 189.972656 226.902344 C 189.660156 229.046875 189.34375 231.191406 189.027344 233.335938 C 188.792969 234.941406 188.558594 236.5625 188.703125 238.175781 C 189.105469 242.585938 192.328125 246.816406 191.085938 251.070312 C 191.699219 252.449219 192.789062 254.335938 194.238281 254.742188 C 196.441406 255.359375 198.359375 252.871094 198.582031 250.59375 C 198.804688 248.320312 198.085938 246 198.519531 243.757812 C 199.410156 239.160156 204.890625 235.828125 204.125 231.210938 C 203.734375 228.863281 201.726562 226.949219 201.648438 224.570312 C 201.53125 221.046875 205.488281 218.847656 206.835938 215.589844 C 207.765625 213.339844 207.367188 210.796875 207.457031 208.367188 C 207.554688 205.660156 208.671875 202.527344 211.578125 202.136719 C 213.433594 201.890625 215.171875 202.953125 216.015625 204.625 C 217.605469 207.761719 216.183594 211.164062 214.125 213.683594 C 212.429688 215.753906 210.292969 217.429688 208.570312 219.476562 C 207.15625 221.15625 205.984375 223.347656 206.535156 225.472656 C 206.863281 226.742188 207.761719 227.785156 208.269531 228.996094 C 209.554688 232.058594 208.164062 235.558594 206.503906 238.4375 C 204.84375 241.320312 202.835938 244.253906 202.847656 247.578125 C 202.859375 250.292969 202.601562 253.09375 205.207031 254.019531 C 207.585938 254.863281 210.292969 253.726562 211.304688 251.414062 C 212.394531 248.921875 211.1875 246.285156 210.316406 243.8125 C 209.476562 241.429688 209.046875 238.441406 210.988281 236.707031 C 211.335938 236.398438 211.777344 236.1875 212.242188 236.207031 C 213.699219 236.277344 213.957031 238.089844 214.199219 239.441406 C 214.433594 240.738281 215.867188 242.21875 216.808594 241.296875 C 218.699219 239.074219 217.769531 235.667969 216.476562 233.054688 C 215.183594 230.4375 213.566406 227.574219 214.402344 224.777344 C 215.464844 221.226562 219.84375 219.84375 221.875 216.742188 C 224.082031 213.375 223.082031 208.753906 224.820312 205.125 C 225.40625 203.902344 226.34375 202.773438 228.089844 202.898438 C 229.90625 203.03125 231.320312 204.492188 231.644531 206.285156 C 232.238281 209.601562 230.054688 212.324219 228.246094 214.941406 C 226.648438 217.25 225.214844 220.128906 226.191406 222.761719 C 228.191406 220.558594 230.191406 218.351562 232.191406 216.148438 C 233.054688 215.195312 234.089844 214.160156 235.492188 214.550781 C 236.515625 214.835938 237.207031 215.761719 237.378906 216.8125 C 238.050781 220.886719 234.5625 223.910156 231.199219 225.863281 C 228.121094 227.652344 224.621094 229.320312 223.082031 232.53125 C 221.152344 236.5625 222.992188 241.746094 220.722656 245.59375 C 219.8125 247.144531 218.332031 248.273438 217.257812 249.71875 C 216.183594 251.160156 215.566406 253.238281 216.585938 254.71875 C 216.996094 255.3125 217.625 255.730469 218.300781 255.992188 C 221.578125 257.265625 225.324219 254.785156 226.789062 251.585938 C 228.253906 248.386719 228.082031 244.71875 228.050781 241.199219 C 228.015625 237.273438 228.289062 233.058594 231.082031 230.125 C 231.714844 229.457031 232.613281 229.066406 233.53125 229.160156 C 235.152344 229.320312 235.648438 230.738281 235.710938 232.023438 C 236.007812 237.863281 229.5625 242.710938 230.578125 248.46875 C 231.710938 250.050781 234.441406 248.898438 235.605469 247.609375 C 236.054688 247.113281 236.566406 246.675781 237.175781 246.402344 C 241.320312 244.550781 242.328125 249.25 240.53125 251.425781 " fill-opacity="1" fill-rule="nonzero"/></g><g fill="#000000" fill-opacity="1"><g transform="translate(98.251862, 276.311348)"><g><path d="M 18.40625 -0.601562 C 18.3125 -1.714844 15.71875 -2.597656 12.75 -2.597656 C 9.550781 -2.597656 7.464844 -1.992188 4.449219 -1.484375 C 4.496094 -1.53125 4.496094 -1.578125 4.542969 -1.667969 C 5.75 -6.539062 6.953125 -10.894531 7.976562 -15.671875 C 9.042969 -20.679688 9.875 -24.757812 10.476562 -29.765625 C 10.523438 -30.507812 10.617188 -31.109375 10.617188 -31.761719 C 10.570312 -32.59375 9.644531 -33.242188 8.578125 -33.242188 C 6.910156 -33.242188 7.1875 -32.363281 7.09375 -31.945312 C 6.121094 -27.078125 5.5625 -23.042969 4.542969 -18.3125 C 3.199219 -12.378906 2.132812 -6.816406 0.371094 -1.160156 C 0.09375 -0.230469 0.371094 0.230469 1.484375 0.925781 C 1.992188 1.25 3.058594 1.390625 3.847656 1.160156 C 7.140625 0.140625 10.570312 -0.09375 14.464844 0.324219 C 15.394531 0.417969 16.273438 0.464844 17.015625 0.371094 C 18.082031 0.230469 18.453125 0 18.40625 -0.601562 Z M 18.40625 -0.601562 "/></g></g></g><g fill="#000000" fill-opacity="1"><g transform="translate(119.206268, 276.311348)"><g><path d="M 16.738281 -8.253906 C 15.53125 -8.578125 15.070312 -7.417969 14.929688 -7.234375 C 12.9375 -4.683594 12.148438 -3.894531 10.0625 -2.6875 C 7.371094 -1.113281 5.285156 -1.019531 4.171875 -2.550781 C 3.476562 -3.476562 3.058594 -4.867188 3.015625 -6.539062 C 3.015625 -7.648438 3.105469 -8.625 3.292969 -9.273438 C 3.429688 -9.691406 4.449219 -9.410156 5.472656 -9.550781 C 9.921875 -10.109375 13.445312 -14.558594 12.65625 -18.59375 C 12.148438 -21.1875 8.902344 -22.535156 6.582031 -21.1875 C 5.472656 -20.539062 4.496094 -19.75 3.753906 -18.871094 C 1.34375 -15.625 0.09375 -13.027344 -0.554688 -8.855469 C -0.835938 -7.09375 -0.601562 -5.84375 -0.511719 -4.496094 C -0.046875 -0.554688 4.171875 1.53125 9.132812 0.464844 C 12.101562 -0.230469 14.789062 -2.039062 16.921875 -4.777344 L 16.96875 -4.820312 C 17.527344 -5.703125 17.710938 -6.257812 17.804688 -6.953125 C 17.851562 -7.742188 17.664062 -8.019531 16.738281 -8.253906 Z M 3.800781 -11.683594 C 4.21875 -13.308594 5.101562 -15.300781 5.886719 -16.507812 C 6.582031 -17.574219 7.417969 -18.359375 8.160156 -18.871094 C 8.949219 -19.378906 9.042969 -19.425781 9.367188 -19.195312 C 9.503906 -19.101562 9.691406 -18.269531 9.597656 -17.804688 C 9.410156 -16.460938 8.578125 -14.929688 7.976562 -14.1875 C 6.722656 -12.890625 5.65625 -12.054688 4.21875 -11.730469 C 3.894531 -11.636719 3.753906 -11.589844 3.753906 -11.542969 C 3.753906 -11.589844 3.800781 -11.589844 3.800781 -11.683594 Z M 3.800781 -11.683594 "/></g></g></g><g fill="#000000" fill-opacity="1"><g transform="translate(135.153872, 276.311348)"><g><path d="M 4.589844 0.464844 C 6.910156 0.464844 8.253906 -0.324219 9.828125 -1.160156 C 11.542969 -2.039062 12.890625 -4.082031 12.980469 -5.84375 C 13.214844 -9.410156 11.359375 -12.007812 7.371094 -13.722656 C 6.816406 -13.863281 5.933594 -14.234375 5.007812 -14.605469 C 4.171875 -14.976562 4.082031 -15.113281 4.960938 -15.949219 C 6.214844 -17.0625 7.695312 -17.617188 11.128906 -18.269531 C 12.425781 -18.5 12.84375 -18.777344 12.609375 -19.519531 C 12.378906 -20.585938 11.636719 -21.097656 10.617188 -20.910156 C 7.929688 -20.445312 3.894531 -19.707031 1.949219 -17.480469 C 0.09375 -15.394531 0.789062 -12.9375 3.429688 -11.960938 C 4.449219 -11.589844 5.609375 -11.40625 6.628906 -10.804688 C 8.671875 -9.597656 9.226562 -8.996094 9.457031 -7.742188 C 9.691406 -6.351562 9.226562 -4.914062 8.390625 -4.265625 C 6.816406 -3.015625 6.304688 -2.734375 4.683594 -2.644531 C 2.6875 -2.550781 1.949219 -3.523438 1.621094 -6.628906 C 1.578125 -6.863281 1.4375 -7.1875 0.648438 -7.324219 C 0.183594 -7.417969 -0.371094 -7.28125 -0.601562 -6.816406 C -1.484375 -5.238281 -1.34375 -2.921875 -0.230469 -1.390625 C 0.648438 -0.277344 2.597656 0.464844 4.589844 0.464844 Z M 4.589844 0.464844 "/></g></g></g><g fill="#000000" fill-opacity="1"><g transform="translate(150.916036, 276.311348)"><g/></g></g><g fill="#000000" fill-opacity="1"><g transform="translate(160.187901, 276.311348)"><g><path d="M 3.429688 0.417969 C 5.472656 1.066406 7.464844 0.324219 8.996094 -1.667969 L 8.949219 -1.667969 L 9.367188 -2.132812 C 10.523438 0.464844 14.375 0.925781 16.691406 -1.34375 C 17.988281 -2.550781 19.148438 -4.125 19.984375 -5.75 C 20.355469 -6.492188 20.308594 -6.910156 19.707031 -7.742188 L 19.660156 -7.742188 C 19.148438 -8.34375 18.222656 -8.066406 17.527344 -6.863281 C 16.691406 -5.425781 16.273438 -5.007812 15.484375 -4.082031 C 14.835938 -3.246094 13.492188 -2.179688 12.703125 -2.503906 C 12.195312 -2.6875 12.101562 -3.753906 12.054688 -4.636719 C 11.960938 -6.953125 13.074219 -9.644531 13.398438 -11.359375 C 13.632812 -12.65625 13.351562 -13.121094 12.054688 -13.445312 C 10.847656 -13.769531 10.199219 -13.308594 9.828125 -12.054688 C 8.996094 -9.273438 8.113281 -6.257812 6.304688 -3.664062 C 5.609375 -2.734375 5.238281 -2.179688 4.636719 -1.949219 C 4.171875 -1.714844 4.3125 -1.714844 3.800781 -2.363281 C 3.058594 -3.246094 3.199219 -4.820312 3.058594 -6.398438 C 3.246094 -10.339844 4.359375 -13.816406 6.398438 -16.691406 C 8.34375 -19.335938 9.179688 -19.566406 10.433594 -17.988281 C 10.894531 -17.480469 10.757812 -16.832031 10.804688 -16.273438 C 10.847656 -15.484375 11.730469 -14.882812 12.703125 -14.976562 C 13.632812 -15.070312 14.046875 -15.578125 14.046875 -16.550781 C 13.957031 -18.546875 12.007812 -20.632812 9.597656 -21.1875 L 9.644531 -21.1875 C 8.34375 -21.558594 6.910156 -21.28125 5.84375 -20.445312 C 3.847656 -18.871094 2.550781 -17.203125 1.484375 -14.835938 C -0.046875 -11.359375 -1.113281 -8.300781 -0.554688 -4.496094 C -0.140625 -1.949219 1.113281 -0.371094 3.429688 0.417969 Z M 3.429688 0.417969 "/></g></g></g><g fill="#000000" fill-opacity="1"><g transform="translate(178.54618, 276.311348)"><g><path d="M 14.699219 -16.226562 C 14.046875 -19.335938 10.246094 -21.050781 7.464844 -19.519531 C 6.304688 -18.917969 5.425781 -18.175781 4.589844 -17.203125 C 5.054688 -19.472656 5.65625 -22.253906 5.886719 -24.296875 C 6.027344 -26.058594 6.582031 -27.957031 6.492188 -29.71875 L 6.492188 -29.765625 C 6.351562 -30.738281 5.5625 -31.527344 4.636719 -31.527344 L 4.683594 -31.527344 C 3.246094 -31.621094 3.339844 -30.738281 3.292969 -30.367188 L -0.742188 -6.953125 L -1.578125 -1.53125 C -1.761719 -0.371094 -1.207031 0.277344 0.09375 0.554688 L 0.140625 0.554688 C 1.992188 0.789062 1.992188 -0.371094 1.992188 -1.066406 C 1.992188 -1.25 2.039062 -1.4375 2.039062 -1.621094 C 2.273438 -1.25 2.644531 -0.882812 3.246094 -0.464844 C 5.65625 1.113281 10.109375 0.140625 11.542969 -2.132812 C 13.027344 -4.542969 13.910156 -7.417969 14.464844 -9.828125 C 15.023438 -12.285156 15.070312 -14.234375 14.699219 -16.226562 Z M 11.035156 -10.804688 C 10.199219 -6.769531 9.320312 -4.40625 8.019531 -2.828125 C 6.910156 -1.4375 5.378906 -1.4375 4.40625 -2.96875 L 4.449219 -2.921875 C 4.171875 -3.570312 3.246094 -3.941406 2.597656 -3.753906 L 2.550781 -3.753906 C 2.457031 -3.710938 2.410156 -3.710938 2.363281 -3.664062 C 2.96875 -7.1875 4.125 -10.523438 5.703125 -13.214844 C 6.628906 -14.789062 7.371094 -16.320312 8.53125 -17.109375 C 10.109375 -18.222656 10.757812 -18.035156 10.988281 -16.179688 C 11.128906 -15.53125 11.359375 -14.742188 11.359375 -14.003906 C 11.359375 -13.027344 11.175781 -11.824219 11.035156 -10.804688 Z M 11.035156 -10.804688 "/></g></g></g><g fill="#000000" fill-opacity="1"><g transform="translate(196.25543, 276.311348)"><g><path d="M 18.453125 -8.066406 L 18.40625 -8.113281 C 17.804688 -8.578125 17.109375 -8.484375 16.367188 -7.605469 C 14.742188 -5.609375 12.519531 -3.664062 11.082031 -2.921875 C 11.082031 -2.921875 11.035156 -2.921875 11.035156 -2.875 L 11.035156 -3.199219 L 11.035156 -3.152344 C 11.683594 -6.539062 13.308594 -13.910156 13.957031 -16.414062 C 14.234375 -17.386719 14.234375 -18.222656 14.417969 -18.871094 C 14.652344 -19.75 14.1875 -20.214844 13.074219 -20.492188 C 12.148438 -20.679688 11.21875 -20.308594 11.082031 -19.660156 C 10.804688 -18.824219 10.523438 -18.035156 10.386719 -17.339844 C 9.738281 -13.492188 7.742188 -9.132812 5.609375 -6.675781 C 4.683594 -5.65625 3.988281 -4.125 3.382812 -4.683594 C 2.96875 -5.101562 2.734375 -6.074219 2.875 -6.910156 C 3.058594 -8.761719 4.3125 -12.84375 4.636719 -14.511719 C 5.054688 -16.96875 5.148438 -17.757812 4.960938 -18.546875 C 4.820312 -19.148438 3.988281 -19.660156 3.152344 -19.566406 C 2.410156 -19.660156 1.808594 -19.289062 1.714844 -18.683594 C 1.296875 -15.070312 -0.371094 -10.339844 -0.601562 -6.816406 C -0.695312 -5.191406 -0.277344 -4.21875 0.972656 -3.199219 C 3.246094 -1.4375 4.960938 -1.578125 7.09375 -3.710938 C 7.28125 -3.894531 7.464844 -4.082031 7.695312 -4.359375 C 7.605469 -3.800781 7.464844 -3.246094 7.371094 -2.734375 L 7.140625 -1.390625 C 4.636719 -0.324219 3.105469 0.601562 0.789062 2.273438 C -1.667969 4.082031 -2.597656 5.472656 -2.550781 7.511719 C -2.503906 9.597656 -1.296875 11.035156 1.25 12.148438 C 3.800781 13.167969 6.445312 12.285156 7.695312 9.875 C 9.457031 6.539062 9.410156 5.101562 10.339844 1.667969 C 10.570312 0.648438 10.664062 0.277344 11.035156 0.140625 C 13.910156 -0.972656 17.0625 -3.570312 18.683594 -6.027344 C 19.289062 -7 19.242188 -7.28125 18.453125 -8.066406 Z M 6.722656 2.132812 C 6.027344 5.425781 5.886719 6.167969 4.683594 8.578125 C 3.894531 10.246094 3.199219 10.804688 2.457031 10.386719 C 0.648438 9.367188 0.230469 7.789062 1.160156 6.027344 C 1.992188 4.542969 2.828125 3.753906 4.496094 2.828125 C 6.074219 1.902344 7.046875 1.019531 6.722656 2.132812 Z M 6.722656 2.132812 "/></g></g></g><g fill="#000000" fill-opacity="1"><g transform="translate(213.501092, 276.311348)"><g><path d="M 4.589844 0.464844 C 6.910156 0.464844 8.253906 -0.324219 9.828125 -1.160156 C 11.542969 -2.039062 12.890625 -4.082031 12.980469 -5.84375 C 13.214844 -9.410156 11.359375 -12.007812 7.371094 -13.722656 C 6.816406 -13.863281 5.933594 -14.234375 5.007812 -14.605469 C 4.171875 -14.976562 4.082031 -15.113281 4.960938 -15.949219 C 6.214844 -17.0625 7.695312 -17.617188 11.128906 -18.269531 C 12.425781 -18.5 12.84375 -18.777344 12.609375 -19.519531 C 12.378906 -20.585938 11.636719 -21.097656 10.617188 -20.910156 C 7.929688 -20.445312 3.894531 -19.707031 1.949219 -17.480469 C 0.09375 -15.394531 0.789062 -12.9375 3.429688 -11.960938 C 4.449219 -11.589844 5.609375 -11.40625 6.628906 -10.804688 C 8.671875 -9.597656 9.226562 -8.996094 9.457031 -7.742188 C 9.691406 -6.351562 9.226562 -4.914062 8.390625 -4.265625 C 6.816406 -3.015625 6.304688 -2.734375 4.683594 -2.644531 C 2.6875 -2.550781 1.949219 -3.523438 1.621094 -6.628906 C 1.578125 -6.863281 1.4375 -7.1875 0.648438 -7.324219 C 0.183594 -7.417969 -0.371094 -7.28125 -0.601562 -6.816406 C -1.484375 -5.238281 -1.34375 -2.921875 -0.230469 -1.390625 C 0.648438 -0.277344 2.597656 0.464844 4.589844 0.464844 Z M 4.589844 0.464844 "/></g></g></g><g fill="#000000" fill-opacity="1"><g transform="translate(229.263256, 276.311348)"><g><path d="M 4.589844 0.464844 C 6.910156 0.464844 8.253906 -0.324219 9.828125 -1.160156 C 11.542969 -2.039062 12.890625 -4.082031 12.980469 -5.84375 C 13.214844 -9.410156 11.359375 -12.007812 7.371094 -13.722656 C 6.816406 -13.863281 5.933594 -14.234375 5.007812 -14.605469 C 4.171875 -14.976562 4.082031 -15.113281 4.960938 -15.949219 C 6.214844 -17.0625 7.695312 -17.617188 11.128906 -18.269531 C 12.425781 -18.5 12.84375 -18.777344 12.609375 -19.519531 C 12.378906 -20.585938 11.636719 -21.097656 10.617188 -20.910156 C 7.929688 -20.445312 3.894531 -19.707031 1.949219 -17.480469 C 0.09375 -15.394531 0.789062 -12.9375 3.429688 -11.960938 C 4.449219 -11.589844 5.609375 -11.40625 6.628906 -10.804688 C 8.671875 -9.597656 9.226562 -8.996094 9.457031 -7.742188 C 9.691406 -6.351562 9.226562 -4.914062 8.390625 -4.265625 C 6.816406 -3.015625 6.304688 -2.734375 4.683594 -2.644531 C 2.6875 -2.550781 1.949219 -3.523438 1.621094 -6.628906 C 1.578125 -6.863281 1.4375 -7.1875 0.648438 -7.324219 C 0.183594 -7.417969 -0.371094 -7.28125 -0.601562 -6.816406 C -1.484375 -5.238281 -1.34375 -2.921875 -0.230469 -1.390625 C 0.648438 -0.277344 2.597656 0.464844 4.589844 0.464844 Z M 4.589844 0.464844 "/></g></g></g><g fill="#000000" fill-opacity="1"><g transform="translate(245.02542, 276.311348)"><g><path d="M 16.738281 -8.253906 C 15.53125 -8.578125 15.070312 -7.417969 14.929688 -7.234375 C 12.9375 -4.683594 12.148438 -3.894531 10.0625 -2.6875 C 7.371094 -1.113281 5.285156 -1.019531 4.171875 -2.550781 C 3.476562 -3.476562 3.058594 -4.867188 3.015625 -6.539062 C 3.015625 -7.648438 3.105469 -8.625 3.292969 -9.273438 C 3.429688 -9.691406 4.449219 -9.410156 5.472656 -9.550781 C 9.921875 -10.109375 13.445312 -14.558594 12.65625 -18.59375 C 12.148438 -21.1875 8.902344 -22.535156 6.582031 -21.1875 C 5.472656 -20.539062 4.496094 -19.75 3.753906 -18.871094 C 1.34375 -15.625 0.09375 -13.027344 -0.554688 -8.855469 C -0.835938 -7.09375 -0.601562 -5.84375 -0.511719 -4.496094 C -0.046875 -0.554688 4.171875 1.53125 9.132812 0.464844 C 12.101562 -0.230469 14.789062 -2.039062 16.921875 -4.777344 L 16.96875 -4.820312 C 17.527344 -5.703125 17.710938 -6.257812 17.804688 -6.953125 C 17.851562 -7.742188 17.664062 -8.019531 16.738281 -8.253906 Z M 3.800781 -11.683594 C 4.21875 -13.308594 5.101562 -15.300781 5.886719 -16.507812 C 6.582031 -17.574219 7.417969 -18.359375 8.160156 -18.871094 C 8.949219 -19.378906 9.042969 -19.425781 9.367188 -19.195312 C 9.503906 -19.101562 9.691406 -18.269531 9.597656 -17.804688 C 9.410156 -16.460938 8.578125 -14.929688 7.976562 -14.1875 C 6.722656 -12.890625 5.65625 -12.054688 4.21875 -11.730469 C 3.894531 -11.636719 3.753906 -11.589844 3.753906 -11.542969 C 3.753906 -11.589844 3.800781 -11.589844 3.800781 -11.683594 Z M 3.800781 -11.683594 "/></g></g></g><g fill="#000000" fill-opacity="1"><g transform="translate(260.973024, 276.311348)"><g><path d="M 4.589844 0.464844 C 6.910156 0.464844 8.253906 -0.324219 9.828125 -1.160156 C 11.542969 -2.039062 12.890625 -4.082031 12.980469 -5.84375 C 13.214844 -9.410156 11.359375 -12.007812 7.371094 -13.722656 C 6.816406 -13.863281 5.933594 -14.234375 5.007812 -14.605469 C 4.171875 -14.976562 4.082031 -15.113281 4.960938 -15.949219 C 6.214844 -17.0625 7.695312 -17.617188 11.128906 -18.269531 C 12.425781 -18.5 12.84375 -18.777344 12.609375 -19.519531 C 12.378906 -20.585938 11.636719 -21.097656 10.617188 -20.910156 C 7.929688 -20.445312 3.894531 -19.707031 1.949219 -17.480469 C 0.09375 -15.394531 0.789062 -12.9375 3.429688 -11.960938 C 4.449219 -11.589844 5.609375 -11.40625 6.628906 -10.804688 C 8.671875 -9.597656 9.226562 -8.996094 9.457031 -7.742188 C 9.691406 -6.351562 9.226562 -4.914062 8.390625 -4.265625 C 6.816406 -3.015625 6.304688 -2.734375 4.683594 -2.644531 C 2.6875 -2.550781 1.949219 -3.523438 1.621094 -6.628906 C 1.578125 -6.863281 1.4375 -7.1875 0.648438 -7.324219 C 0.183594 -7.417969 -0.371094 -7.28125 -0.601562 -6.816406 C -1.484375 -5.238281 -1.34375 -2.921875 -0.230469 -1.390625 C 0.648438 -0.277344 2.597656 0.464844 4.589844 0.464844 Z M 4.589844 0.464844 "/></g></g></g><g fill="#000000" fill-opacity="1"><g transform="translate(119.196763, 297.174708)"><g><path d="M 5.765625 -9.265625 C 4.640625 -9.265625 3.753906 -8.890625 3.109375 -8.140625 C 2.460938 -7.398438 2.140625 -6.382812 2.140625 -5.09375 C 2.140625 -3.757812 2.453125 -2.726562 3.078125 -2 C 3.703125 -1.269531 4.59375 -0.90625 5.75 -0.90625 C 6.457031 -0.90625 7.265625 -1.035156 8.171875 -1.296875 L 8.171875 -0.25 C 7.472656 0.0078125 6.601562 0.140625 5.5625 0.140625 C 4.0625 0.140625 2.90625 -0.3125 2.09375 -1.21875 C 1.28125 -2.132812 0.875 -3.429688 0.875 -5.109375 C 0.875 -6.160156 1.066406 -7.078125 1.453125 -7.859375 C 1.847656 -8.648438 2.414062 -9.257812 3.15625 -9.6875 C 3.894531 -10.113281 4.769531 -10.328125 5.78125 -10.328125 C 6.84375 -10.328125 7.773438 -10.132812 8.578125 -9.75 L 8.078125 -8.734375 C 7.304688 -9.085938 6.535156 -9.265625 5.765625 -9.265625 Z M 5.765625 -9.265625 "/></g></g></g><g fill="#000000" fill-opacity="1"><g transform="translate(128.193902, 297.174708)"><g><path d="M 2.375 0 L 1.21875 0 L 1.21875 -10.84375 L 2.375 -10.84375 Z M 2.375 0 "/></g></g></g><g fill="#000000" fill-opacity="1"><g transform="translate(131.801114, 297.174708)"><g><path d="M 2.3125 -7.640625 L 2.3125 -2.6875 C 2.3125 -2.0625 2.453125 -1.59375 2.734375 -1.28125 C 3.015625 -0.976562 3.457031 -0.828125 4.0625 -0.828125 C 4.863281 -0.828125 5.445312 -1.046875 5.8125 -1.484375 C 6.1875 -1.921875 6.375 -2.632812 6.375 -3.625 L 6.375 -7.640625 L 7.53125 -7.640625 L 7.53125 0 L 6.578125 0 L 6.40625 -1.03125 L 6.34375 -1.03125 C 6.101562 -0.644531 5.773438 -0.351562 5.359375 -0.15625 C 4.941406 0.0390625 4.460938 0.140625 3.921875 0.140625 C 2.992188 0.140625 2.296875 -0.078125 1.828125 -0.515625 C 1.367188 -0.960938 1.140625 -1.671875 1.140625 -2.640625 L 1.140625 -7.640625 Z M 2.3125 -7.640625 "/></g></g></g><g fill="#000000" fill-opacity="1"><g transform="translate(140.554527, 297.174708)"><g><path d="M 4.78125 -7.765625 C 5.78125 -7.765625 6.554688 -7.421875 7.109375 -6.734375 C 7.671875 -6.046875 7.953125 -5.078125 7.953125 -3.828125 C 7.953125 -2.566406 7.671875 -1.585938 7.109375 -0.890625 C 6.546875 -0.203125 5.769531 0.140625 4.78125 0.140625 C 4.28125 0.140625 3.820312 0.0507812 3.40625 -0.125 C 3 -0.3125 2.65625 -0.597656 2.375 -0.984375 L 2.296875 -0.984375 L 2.0625 0 L 1.21875 0 L 1.21875 -10.84375 L 2.375 -10.84375 L 2.375 -8.203125 C 2.375 -7.617188 2.359375 -7.09375 2.328125 -6.625 L 2.375 -6.625 C 2.914062 -7.382812 3.71875 -7.765625 4.78125 -7.765625 Z M 4.609375 -6.796875 C 3.816406 -6.796875 3.242188 -6.566406 2.890625 -6.109375 C 2.546875 -5.660156 2.375 -4.898438 2.375 -3.828125 C 2.375 -2.753906 2.550781 -1.984375 2.90625 -1.515625 C 3.269531 -1.054688 3.847656 -0.828125 4.640625 -0.828125 C 5.347656 -0.828125 5.875 -1.082031 6.21875 -1.59375 C 6.570312 -2.113281 6.75 -2.863281 6.75 -3.84375 C 6.75 -4.832031 6.570312 -5.570312 6.21875 -6.0625 C 5.875 -6.550781 5.335938 -6.796875 4.609375 -6.796875 Z M 4.609375 -6.796875 "/></g></g></g><g fill="#000000" fill-opacity="1"><g transform="translate(149.294013, 297.174708)"><g/></g></g><g fill="#000000" fill-opacity="1"><g transform="translate(152.998717, 297.174708)"><g><path d="M 6.421875 -1.03125 L 6.359375 -1.03125 C 5.828125 -0.25 5.03125 0.140625 3.96875 0.140625 C 2.96875 0.140625 2.1875 -0.195312 1.625 -0.875 C 1.070312 -1.5625 0.796875 -2.535156 0.796875 -3.796875 C 0.796875 -5.054688 1.070312 -6.035156 1.625 -6.734375 C 2.1875 -7.429688 2.96875 -7.78125 3.96875 -7.78125 C 5 -7.78125 5.789062 -7.398438 6.34375 -6.640625 L 6.4375 -6.640625 L 6.390625 -7.203125 L 6.359375 -7.734375 L 6.359375 -10.84375 L 7.515625 -10.84375 L 7.515625 0 L 6.578125 0 Z M 4.109375 -0.828125 C 4.898438 -0.828125 5.472656 -1.039062 5.828125 -1.46875 C 6.179688 -1.90625 6.359375 -2.597656 6.359375 -3.546875 L 6.359375 -3.796875 C 6.359375 -4.878906 6.175781 -5.648438 5.8125 -6.109375 C 5.457031 -6.578125 4.882812 -6.8125 4.09375 -6.8125 C 3.414062 -6.8125 2.894531 -6.546875 2.53125 -6.015625 C 2.175781 -5.484375 2 -4.738281 2 -3.78125 C 2 -2.800781 2.175781 -2.0625 2.53125 -1.5625 C 2.894531 -1.070312 3.421875 -0.828125 4.109375 -0.828125 Z M 4.109375 -0.828125 "/></g></g></g><g fill="#000000" fill-opacity="1"><g transform="translate(161.738203, 297.174708)"><g><path d="M 2.21875 -10.1875 L 1.9375 -6.5 L 1.21875 -6.5 L 0.921875 -10.1875 Z M 2.21875 -10.1875 "/></g></g></g><g fill="#000000" fill-opacity="1"><g transform="translate(164.892779, 297.174708)"><g><path d="M 5.921875 0 L 5.6875 -1.09375 L 5.640625 -1.09375 C 5.253906 -0.613281 4.867188 -0.285156 4.484375 -0.109375 C 4.109375 0.0546875 3.640625 0.140625 3.078125 0.140625 C 2.316406 0.140625 1.722656 -0.0507812 1.296875 -0.4375 C 0.867188 -0.832031 0.65625 -1.390625 0.65625 -2.109375 C 0.65625 -3.648438 1.890625 -4.457031 4.359375 -4.53125 L 5.65625 -4.578125 L 5.65625 -5.046875 C 5.65625 -5.648438 5.523438 -6.09375 5.265625 -6.375 C 5.003906 -6.664062 4.59375 -6.8125 4.03125 -6.8125 C 3.394531 -6.8125 2.671875 -6.613281 1.859375 -6.21875 L 1.515625 -7.109375 C 1.890625 -7.304688 2.300781 -7.460938 2.75 -7.578125 C 3.195312 -7.703125 3.644531 -7.765625 4.09375 -7.765625 C 5.007812 -7.765625 5.6875 -7.5625 6.125 -7.15625 C 6.5625 -6.75 6.78125 -6.097656 6.78125 -5.203125 L 6.78125 0 Z M 3.3125 -0.8125 C 4.03125 -0.8125 4.59375 -1.007812 5 -1.40625 C 5.414062 -1.800781 5.625 -2.351562 5.625 -3.0625 L 5.625 -3.75 L 4.46875 -3.703125 C 3.539062 -3.671875 2.875 -3.523438 2.46875 -3.265625 C 2.0625 -3.015625 1.859375 -2.625 1.859375 -2.09375 C 1.859375 -1.675781 1.984375 -1.359375 2.234375 -1.140625 C 2.492188 -0.921875 2.851562 -0.8125 3.3125 -0.8125 Z M 3.3125 -0.8125 "/></g></g></g><g fill="#000000" fill-opacity="1"><g transform="translate(172.824472, 297.174708)"><g><path d="M 4.109375 -0.828125 C 4.878906 -0.828125 5.441406 -1.03125 5.796875 -1.4375 C 6.148438 -1.851562 6.335938 -2.550781 6.359375 -3.53125 L 6.359375 -3.796875 C 6.359375 -4.859375 6.175781 -5.625 5.8125 -6.09375 C 5.445312 -6.570312 4.875 -6.8125 4.09375 -6.8125 C 3.414062 -6.8125 2.894531 -6.546875 2.53125 -6.015625 C 2.175781 -5.484375 2 -4.738281 2 -3.78125 C 2 -2.820312 2.175781 -2.085938 2.53125 -1.578125 C 2.882812 -1.078125 3.410156 -0.828125 4.109375 -0.828125 Z M 3.9375 0.140625 C 2.945312 0.140625 2.175781 -0.203125 1.625 -0.890625 C 1.070312 -1.585938 0.796875 -2.554688 0.796875 -3.796875 C 0.796875 -5.046875 1.070312 -6.019531 1.625 -6.71875 C 2.1875 -7.425781 2.96875 -7.78125 3.96875 -7.78125 C 5.007812 -7.78125 5.8125 -7.382812 6.375 -6.59375 L 6.4375 -6.59375 L 6.609375 -7.640625 L 7.515625 -7.640625 L 7.515625 3.421875 L 6.359375 3.421875 L 6.359375 0.15625 C 6.359375 -0.300781 6.382812 -0.695312 6.4375 -1.03125 L 6.34375 -1.03125 C 5.8125 -0.25 5.007812 0.140625 3.9375 0.140625 Z M 3.9375 0.140625 "/></g></g></g><g fill="#000000" fill-opacity="1"><g transform="translate(181.563958, 297.174708)"><g><path d="M 2.3125 -7.640625 L 2.3125 -2.6875 C 2.3125 -2.0625 2.453125 -1.59375 2.734375 -1.28125 C 3.015625 -0.976562 3.457031 -0.828125 4.0625 -0.828125 C 4.863281 -0.828125 5.445312 -1.046875 5.8125 -1.484375 C 6.1875 -1.921875 6.375 -2.632812 6.375 -3.625 L 6.375 -7.640625 L 7.53125 -7.640625 L 7.53125 0 L 6.578125 0 L 6.40625 -1.03125 L 6.34375 -1.03125 C 6.101562 -0.644531 5.773438 -0.351562 5.359375 -0.15625 C 4.941406 0.0390625 4.460938 0.140625 3.921875 0.140625 C 2.992188 0.140625 2.296875 -0.078125 1.828125 -0.515625 C 1.367188 -0.960938 1.140625 -1.671875 1.140625 -2.640625 L 1.140625 -7.640625 Z M 2.3125 -7.640625 "/></g></g></g><g fill="#000000" fill-opacity="1"><g transform="translate(190.317372, 297.174708)"><g><path d="M 5.921875 0 L 5.6875 -1.09375 L 5.640625 -1.09375 C 5.253906 -0.613281 4.867188 -0.285156 4.484375 -0.109375 C 4.109375 0.0546875 3.640625 0.140625 3.078125 0.140625 C 2.316406 0.140625 1.722656 -0.0507812 1.296875 -0.4375 C 0.867188 -0.832031 0.65625 -1.390625 0.65625 -2.109375 C 0.65625 -3.648438 1.890625 -4.457031 4.359375 -4.53125 L 5.65625 -4.578125 L 5.65625 -5.046875 C 5.65625 -5.648438 5.523438 -6.09375 5.265625 -6.375 C 5.003906 -6.664062 4.59375 -6.8125 4.03125 -6.8125 C 3.394531 -6.8125 2.671875 -6.613281 1.859375 -6.21875 L 1.515625 -7.109375 C 1.890625 -7.304688 2.300781 -7.460938 2.75 -7.578125 C 3.195312 -7.703125 3.644531 -7.765625 4.09375 -7.765625 C 5.007812 -7.765625 5.6875 -7.5625 6.125 -7.15625 C 6.5625 -6.75 6.78125 -6.097656 6.78125 -5.203125 L 6.78125 0 Z M 3.3125 -0.8125 C 4.03125 -0.8125 4.59375 -1.007812 5 -1.40625 C 5.414062 -1.800781 5.625 -2.351562 5.625 -3.0625 L 5.625 -3.75 L 4.46875 -3.703125 C 3.539062 -3.671875 2.875 -3.523438 2.46875 -3.265625 C 2.0625 -3.015625 1.859375 -2.625 1.859375 -2.09375 C 1.859375 -1.675781 1.984375 -1.359375 2.234375 -1.140625 C 2.492188 -0.921875 2.851562 -0.8125 3.3125 -0.8125 Z M 3.3125 -0.8125 "/></g></g></g><g fill="#000000" fill-opacity="1"><g transform="translate(198.249065, 297.174708)"><g><path d="M 4.703125 -7.78125 C 5.046875 -7.78125 5.351562 -7.75 5.625 -7.6875 L 5.46875 -6.625 C 5.144531 -6.6875 4.863281 -6.71875 4.625 -6.71875 C 4.007812 -6.71875 3.476562 -6.46875 3.03125 -5.96875 C 2.59375 -5.46875 2.375 -4.84375 2.375 -4.09375 L 2.375 0 L 1.21875 0 L 1.21875 -7.640625 L 2.1875 -7.640625 L 2.3125 -6.21875 L 2.375 -6.21875 C 2.65625 -6.71875 2.992188 -7.101562 3.390625 -7.375 C 3.785156 -7.644531 4.222656 -7.78125 4.703125 -7.78125 Z M 4.703125 -7.78125 "/></g></g></g><g fill="#000000" fill-opacity="1"><g transform="translate(204.070743, 297.174708)"><g><path d="M 2.375 0 L 1.21875 0 L 1.21875 -7.640625 L 2.375 -7.640625 Z M 1.125 -9.703125 C 1.125 -9.960938 1.1875 -10.15625 1.3125 -10.28125 C 1.445312 -10.40625 1.613281 -10.46875 1.8125 -10.46875 C 2 -10.46875 2.160156 -10.40625 2.296875 -10.28125 C 2.429688 -10.15625 2.5 -9.960938 2.5 -9.703125 C 2.5 -9.441406 2.429688 -9.25 2.296875 -9.125 C 2.160156 -9 2 -8.9375 1.8125 -8.9375 C 1.613281 -8.9375 1.445312 -9 1.3125 -9.125 C 1.1875 -9.25 1.125 -9.441406 1.125 -9.703125 Z M 1.125 -9.703125 "/></g></g></g><g fill="#000000" fill-opacity="1"><g transform="translate(207.677955, 297.174708)"><g><path d="M 7.8125 -3.828125 C 7.8125 -2.578125 7.5 -1.601562 6.875 -0.90625 C 6.25 -0.207031 5.382812 0.140625 4.28125 0.140625 C 3.59375 0.140625 2.984375 -0.0195312 2.453125 -0.34375 C 1.929688 -0.664062 1.523438 -1.125 1.234375 -1.71875 C 0.941406 -2.320312 0.796875 -3.023438 0.796875 -3.828125 C 0.796875 -5.066406 1.109375 -6.035156 1.734375 -6.734375 C 2.359375 -7.429688 3.222656 -7.78125 4.328125 -7.78125 C 5.390625 -7.78125 6.234375 -7.421875 6.859375 -6.703125 C 7.492188 -5.992188 7.8125 -5.035156 7.8125 -3.828125 Z M 2 -3.828125 C 2 -2.847656 2.191406 -2.101562 2.578125 -1.59375 C 2.972656 -1.082031 3.550781 -0.828125 4.3125 -0.828125 C 5.0625 -0.828125 5.632812 -1.082031 6.03125 -1.59375 C 6.425781 -2.101562 6.625 -2.847656 6.625 -3.828125 C 6.625 -4.796875 6.425781 -5.53125 6.03125 -6.03125 C 5.632812 -6.539062 5.054688 -6.796875 4.296875 -6.796875 C 3.535156 -6.796875 2.960938 -6.546875 2.578125 -6.046875 C 2.191406 -5.546875 2 -4.804688 2 -3.828125 Z M 2 -3.828125 "/></g></g></g><g fill="#000000" fill-opacity="1"><g transform="translate(216.292094, 297.174708)"><g><path d="M 4.78125 0.140625 C 4.28125 0.140625 3.820312 0.0507812 3.40625 -0.125 C 3 -0.3125 2.65625 -0.597656 2.375 -0.984375 L 2.296875 -0.984375 C 2.347656 -0.535156 2.375 -0.113281 2.375 0.28125 L 2.375 3.421875 L 1.21875 3.421875 L 1.21875 -7.640625 L 2.171875 -7.640625 L 2.328125 -6.59375 L 2.375 -6.59375 C 2.675781 -7.007812 3.023438 -7.3125 3.421875 -7.5 C 3.816406 -7.6875 4.269531 -7.78125 4.78125 -7.78125 C 5.789062 -7.78125 6.570312 -7.429688 7.125 -6.734375 C 7.675781 -6.046875 7.953125 -5.078125 7.953125 -3.828125 C 7.953125 -2.566406 7.671875 -1.585938 7.109375 -0.890625 C 6.546875 -0.203125 5.769531 0.140625 4.78125 0.140625 Z M 4.609375 -6.796875 C 3.828125 -6.796875 3.257812 -6.578125 2.90625 -6.140625 C 2.5625 -5.710938 2.382812 -5.023438 2.375 -4.078125 L 2.375 -3.828125 C 2.375 -2.753906 2.550781 -1.984375 2.90625 -1.515625 C 3.269531 -1.054688 3.847656 -0.828125 4.640625 -0.828125 C 5.296875 -0.828125 5.8125 -1.09375 6.1875 -1.625 C 6.5625 -2.164062 6.75 -2.90625 6.75 -3.84375 C 6.75 -4.789062 6.5625 -5.519531 6.1875 -6.03125 C 5.8125 -6.539062 5.285156 -6.796875 4.609375 -6.796875 Z M 4.609375 -6.796875 "/></g></g></g><g fill="#000000" fill-opacity="1"><g transform="translate(225.03158, 297.174708)"><g><path d="M 6.453125 0 L 6.453125 -4.9375 C 6.453125 -5.5625 6.304688 -6.023438 6.015625 -6.328125 C 5.734375 -6.640625 5.289062 -6.796875 4.6875 -6.796875 C 3.882812 -6.796875 3.296875 -6.578125 2.921875 -6.140625 C 2.554688 -5.703125 2.375 -4.984375 2.375 -3.984375 L 2.375 0 L 1.21875 0 L 1.21875 -10.84375 L 2.375 -10.84375 L 2.375 -7.5625 C 2.375 -7.164062 2.359375 -6.835938 2.328125 -6.578125 L 2.390625 -6.578125 C 2.617188 -6.941406 2.941406 -7.226562 3.359375 -7.4375 C 3.785156 -7.65625 4.269531 -7.765625 4.8125 -7.765625 C 5.738281 -7.765625 6.4375 -7.539062 6.90625 -7.09375 C 7.375 -6.644531 7.609375 -5.941406 7.609375 -4.984375 L 7.609375 0 Z M 6.453125 0 "/></g></g></g><g fill="#000000" fill-opacity="1"><g transform="translate(233.784993, 297.174708)"><g><path d="M 2.375 0 L 1.21875 0 L 1.21875 -7.640625 L 2.375 -7.640625 Z M 1.125 -9.703125 C 1.125 -9.960938 1.1875 -10.15625 1.3125 -10.28125 C 1.445312 -10.40625 1.613281 -10.46875 1.8125 -10.46875 C 2 -10.46875 2.160156 -10.40625 2.296875 -10.28125 C 2.429688 -10.15625 2.5 -9.960938 2.5 -9.703125 C 2.5 -9.441406 2.429688 -9.25 2.296875 -9.125 C 2.160156 -9 2 -8.9375 1.8125 -8.9375 C 1.613281 -8.9375 1.445312 -9 1.3125 -9.125 C 1.1875 -9.25 1.125 -9.441406 1.125 -9.703125 Z M 1.125 -9.703125 "/></g></g></g><g fill="#000000" fill-opacity="1"><g transform="translate(237.392205, 297.174708)"><g><path d="M 2.375 0 L 1.21875 0 L 1.21875 -10.84375 L 2.375 -10.84375 Z M 2.375 0 "/></g></g></g><g fill="#000000" fill-opacity="1"><g transform="translate(240.999417, 297.174708)"><g><path d="M 4.453125 0.140625 C 3.328125 0.140625 2.4375 -0.203125 1.78125 -0.890625 C 1.125 -1.578125 0.796875 -2.53125 0.796875 -3.75 C 0.796875 -4.976562 1.097656 -5.957031 1.703125 -6.6875 C 2.316406 -7.414062 3.132812 -7.78125 4.15625 -7.78125 C 5.113281 -7.78125 5.867188 -7.460938 6.421875 -6.828125 C 6.984375 -6.203125 7.265625 -5.375 7.265625 -4.34375 L 7.265625 -3.609375 L 2 -3.609375 C 2.019531 -2.710938 2.242188 -2.03125 2.671875 -1.5625 C 3.109375 -1.101562 3.71875 -0.875 4.5 -0.875 C 5.3125 -0.875 6.125 -1.046875 6.9375 -1.390625 L 6.9375 -0.359375 C 6.519531 -0.179688 6.128906 -0.0546875 5.765625 0.015625 C 5.398438 0.0976562 4.960938 0.140625 4.453125 0.140625 Z M 4.140625 -6.8125 C 3.523438 -6.8125 3.035156 -6.609375 2.671875 -6.203125 C 2.304688 -5.804688 2.09375 -5.253906 2.03125 -4.546875 L 6.015625 -4.546875 C 6.015625 -5.273438 5.851562 -5.832031 5.53125 -6.21875 C 5.207031 -6.613281 4.742188 -6.8125 4.140625 -6.8125 Z M 4.140625 -6.8125 "/></g></g></g><g fill="#000000" fill-opacity="1"><g transform="translate(249.000748, 297.174708)"><g><path d="M 6.15625 -2.078125 C 6.15625 -1.367188 5.890625 -0.820312 5.359375 -0.4375 C 4.828125 -0.0507812 4.082031 0.140625 3.125 0.140625 C 2.113281 0.140625 1.328125 -0.0195312 0.765625 -0.34375 L 0.765625 -1.40625 C 1.128906 -1.226562 1.519531 -1.082031 1.9375 -0.96875 C 2.363281 -0.863281 2.769531 -0.8125 3.15625 -0.8125 C 3.757812 -0.8125 4.222656 -0.90625 4.546875 -1.09375 C 4.867188 -1.289062 5.03125 -1.585938 5.03125 -1.984375 C 5.03125 -2.285156 4.898438 -2.539062 4.640625 -2.75 C 4.390625 -2.957031 3.890625 -3.207031 3.140625 -3.5 C 2.429688 -3.757812 1.925781 -3.988281 1.625 -4.1875 C 1.320312 -4.382812 1.097656 -4.609375 0.953125 -4.859375 C 0.804688 -5.109375 0.734375 -5.410156 0.734375 -5.765625 C 0.734375 -6.378906 0.984375 -6.867188 1.484375 -7.234375 C 1.992188 -7.597656 2.691406 -7.78125 3.578125 -7.78125 C 4.398438 -7.78125 5.203125 -7.609375 5.984375 -7.265625 L 5.578125 -6.328125 C 4.816406 -6.648438 4.125 -6.8125 3.5 -6.8125 C 2.945312 -6.8125 2.53125 -6.722656 2.25 -6.546875 C 1.976562 -6.378906 1.84375 -6.144531 1.84375 -5.84375 C 1.84375 -5.632812 1.894531 -5.457031 2 -5.3125 C 2.101562 -5.164062 2.269531 -5.023438 2.5 -4.890625 C 2.726562 -4.765625 3.175781 -4.582031 3.84375 -4.34375 C 4.75 -4.007812 5.359375 -3.675781 5.671875 -3.34375 C 5.992188 -3.007812 6.15625 -2.585938 6.15625 -2.078125 Z M 6.15625 -2.078125 "/></g></g></g></svg>