<?xml version="1.0" ?><svg width="56px" height="56px" viewBox="0 0 56 56" id="Layer_1" style="enable-background:new 0 0 56 56;" version="1.1" xml:space="preserve" xmlns="http://www.w3.org/2000/svg" xmlns:xlink="http://www.w3.org/1999/xlink"><g><path d="M49.8,32.5c-1.6-0.5-3.4-0.5-5.2,0.1l-5.9,1.9c-0.1-0.4-0.4-0.9-0.8-1.3c-1-1.1-2.5-1.7-4.1-1.7h-5.1   c-0.3,0-0.6-0.1-0.8-0.3c-3.7-3.2-8.1-1.7-9.3-1.2c-0.3,0.1-0.6,0.3-0.8,0.5l-5.8,4.9c-0.5-0.5-1.1-0.8-1.9-0.9   c-0.9-0.1-1.8,0.1-2.5,0.6l-2.2,1.7c-1.5,1.1-1.8,3.2-0.7,4.7l7.7,10.2c0,0,0,0,0,0C13,52.5,14,53,15,53c0.7,0,1.4-0.2,2-0.7   l2.2-1.7c1.2-0.9,1.6-2.5,1.1-3.8l1.1-0.9c0.2-0.2,0.5-0.3,0.8-0.3l10.8-0.2c1.9,0,3.9-0.6,5.6-1.5l11.1-6.4c0.6-0.3,2.3-1.5,2.2-3   C51.9,33.6,51.2,33,49.8,32.5z M18,49.1l-2.2,1.7c-0.6,0.5-1.5,0.3-1.9-0.3L6.3,40.3c-0.5-0.6-0.3-1.5,0.3-1.9l2.2-1.7   c0.3-0.2,0.7-0.3,1-0.3c0.4,0.1,0.7,0.2,0.9,0.5l0.3,0.4c0,0,0,0,0,0l4.7,6.2l2.6,3.5C18.8,47.8,18.6,48.6,18,49.1z M48.8,35.8   l-11.1,6.4c-1.4,0.8-3,1.2-4.6,1.3l-10.8,0.2c-0.7,0-1.4,0.3-2,0.7l-1,0.8l-2.4-3.2l-3.8-5l5.8-4.9c0.1-0.1,0.2-0.1,0.3-0.2   c1-0.4,4.4-1.6,7.3,0.9c0.6,0.5,1.3,0.8,2.1,0.8h5.1c1.1,0,2,0.4,2.6,1c0.2,0.3,0.5,0.6,0.4,0.9c0,0.2-0.3,0.7-1.8,1.4h-7.3   c-0.6,0-1,0.4-1,1s0.4,1,1,1h7.5c0.1,0,0.3,0,0.4-0.1c1.4-0.6,2.3-1.3,2.8-2.1l6.8-2.1c1.4-0.4,2.8-0.5,4-0.1   c0.5,0.2,0.7,0.3,0.8,0.4C49.9,35.1,49.3,35.5,48.8,35.8z"/><path d="M9.8,38.6l-1.7,1.3c-0.4,0.3-0.5,1-0.2,1.4c0.2,0.3,0.5,0.4,0.8,0.4c0.2,0,0.4-0.1,0.6-0.2l1.7-1.3c0.4-0.3,0.5-1,0.2-1.4   C10.9,38.4,10.2,38.3,9.8,38.6z"/><path d="M38.3,30.5c6,0,10.9-4.9,10.9-10.9c0-5.7-9.6-15.2-10.7-16.3C38.3,3.1,38,3,37.8,3c-0.3,0-0.5,0.1-0.7,0.3   c-0.4,0.4-9.6,10.5-9.6,16.3C27.4,25.6,32.3,30.5,38.3,30.5z M37.8,5.5c3.2,3.2,9.3,10.3,9.3,14.1c0,4.9-4,8.9-8.9,8.9   c-4.9,0-8.9-4-8.9-8.9C29.4,15.8,34.9,8.7,37.8,5.5z"/><path d="M38.3,26.2c0.6,0,1-0.4,1-1s-0.4-1-1-1c-2.3,0-4.2-2.2-4.2-4.8c0-0.6-0.4-1-1-1s-1,0.4-1,1C32.1,23.1,34.9,26.2,38.3,26.2z   "/></g></svg>