<?xml version="1.0" encoding="iso-8859-1"?>
<!-- Generator: Adobe Illustrator 19.0.0, SVG Export Plug-In . SVG Version: 6.00 Build 0)  -->
<svg version="1.1" id="Layer_1" xmlns="http://www.w3.org/2000/svg" xmlns:xlink="http://www.w3.org/1999/xlink" x="0px" y="0px"
	 viewBox="0 0 512.005 512.005" style="enable-background:new 0 0 512.005 512.005;" xml:space="preserve">
<g>
	<g>
		<path d="M297.655,149.32V0h-83.304v149.32H108.381v123.536h15.869V222.99h37.116v146.204h15.869V222.991h157.537v146.204h15.869
			V222.991h37.116v205.705H124.25V301.759h-15.869v142.805h105.969v30.6h15.869v-30.6h51.567v30.6h15.869v-30.6h105.969V149.32
			H297.655z M230.219,15.869h51.567v46.749h-51.567V15.869z M230.219,78.486h51.567v70.834h-51.567V78.486z M387.755,207.122H124.25
			v-41.933h263.505V207.122z"/>
	</g>
</g>
<g>
	<g>
		<rect x="154.849" y="385.342" width="28.901" height="15.869"/>
	</g>
</g>
<g>
	<g>
		<rect x="328.25" y="385.342" width="28.901" height="15.869"/>
	</g>
</g>
<g>
	<g>
		<rect x="174.113" y="496.137" width="163.774" height="15.869"/>
	</g>
</g>
<g>
</g>
<g>
</g>
<g>
</g>
<g>
</g>
<g>
</g>
<g>
</g>
<g>
</g>
<g>
</g>
<g>
</g>
<g>
</g>
<g>
</g>
<g>
</g>
<g>
</g>
<g>
</g>
<g>
</g>
</svg>
