<svg xmlns="http://www.w3.org/2000/svg" xmlns:xlink="http://www.w3.org/1999/xlink" width="500" zoomAndPan="magnify" viewBox="0 0 375 374.999991" height="500" preserveAspectRatio="xMidYMid meet" version="1.0"><defs><clipPath id="id1"><path d="M 223 292 L 275 292 L 275 318.75 L 223 318.75 Z M 223 292 " clip-rule="nonzero"/></clipPath><clipPath id="id2"><path d="M 0.371094 37.5 L 250 37.5 L 250 274 L 0.371094 274 Z M 0.371094 37.5 " clip-rule="nonzero"/></clipPath><clipPath id="id3"><path d="M 126 83 L 375 83 L 375 318.75 L 126 318.75 Z M 126 83 " clip-rule="nonzero"/></clipPath></defs><path fill="#86ada0" d="M 145.039062 104.378906 C 145.351562 104.066406 145.664062 103.753906 145.980469 103.4375 C 147.234375 102.496094 148.804688 102.496094 150.371094 103.4375 C 151.941406 104.695312 152.570312 106.890625 151.3125 108.773438 C 150.371094 110.027344 129.660156 142.039062 166.0625 167.769531 C 172.027344 167.769531 177.675781 167.457031 183.007812 166.828125 C 215.015625 163.375 237.613281 152.394531 243.886719 148.941406 C 239.496094 121.324219 221.605469 98.417969 196.816406 89.003906 C 132.800781 64.527344 63.761719 89.632812 25.164062 151.453125 C 0.0585938 191.617188 13.238281 235.238281 25.164062 260.96875 C 22.652344 243.082031 21.085938 213.898438 34.578125 209.191406 C 38.65625 207.621094 43.050781 210.445312 46.503906 212.644531 C 47.445312 213.269531 48.386719 213.898438 49.011719 214.210938 C 52.777344 215.78125 57.171875 217.351562 61.25 218.292969 C 49.328125 209.191406 40.539062 191.933594 38.65625 178.125 C 36.773438 166.199219 39.914062 156.472656 46.816406 151.136719 C 53.71875 145.804688 64.074219 144.546875 77.570312 148 C 76.628906 141.722656 76.941406 137.328125 76.941406 137.328125 C 76.941406 137.015625 77.253906 136.386719 77.253906 136.074219 C 77.882812 134.820312 79.453125 133.878906 81.023438 133.878906 C 83.21875 134.191406 84.472656 135.761719 84.472656 137.957031 C 84.472656 138.585938 84.160156 143.605469 85.730469 150.195312 C 88.554688 151.136719 91.691406 152.394531 94.828125 153.648438 C 100.792969 156.160156 106.441406 158.355469 112.089844 159.925781 C 101.105469 142.039062 106.753906 121.953125 106.753906 121.640625 C 106.753906 121.324219 107.066406 120.699219 107.382812 120.382812 C 108.324219 119.128906 109.890625 118.5 111.460938 119.128906 C 113.34375 119.757812 114.597656 121.640625 113.972656 123.835938 C 113.65625 125.089844 107.695312 147.058594 124.328125 163.375 C 129.660156 164.632812 134.996094 165.574219 140.332031 166.199219 C 144.722656 166.828125 149.117188 167.140625 153.511719 167.457031 C 122.445312 138.585938 144.410156 105.007812 144.722656 104.378906 Z M 179.242188 116.617188 C 180.5 114.109375 182.066406 112.226562 184.265625 110.96875 C 188.34375 108.144531 193.363281 107.203125 198.070312 108.773438 C 201.523438 110.027344 204.035156 112.539062 205.289062 115.675781 C 206.542969 119.128906 206.542969 123.207031 204.660156 126.660156 C 201.210938 133.5625 192.738281 137.015625 185.832031 134.820312 C 182.382812 133.5625 179.871094 131.054688 178.617188 127.914062 C 177.359375 124.464844 177.359375 120.382812 179.242188 116.933594 Z M 179.242188 116.617188 " fill-opacity="1" fill-rule="evenodd"/><path fill="#289dd2" d="M 158.847656 72.371094 C 152.570312 64.527344 137.507812 51.03125 108.324219 51.660156 C 111.148438 56.996094 113.34375 65.78125 108.324219 77.394531 C 124.640625 72.6875 141.585938 70.804688 158.847656 72.371094 Z M 158.847656 72.371094 " fill-opacity="1" fill-rule="evenodd"/><path fill="#289dd2" d="M 108.007812 177.183594 C 113.972656 175.613281 118.679688 173.105469 122.445312 170.90625 L 123.386719 170.28125 L 121.1875 169.652344 C 114.597656 168.082031 108.007812 165.886719 101.105469 163.375 C 100.164062 165.574219 98.910156 167.457031 97.339844 169.652344 C 95.769531 171.535156 93.886719 173.417969 92.320312 175.300781 C 91.0625 176.554688 89.808594 177.496094 88.554688 178.753906 C 91.378906 179.066406 93.886719 179.066406 96.398438 179.066406 C 100.476562 178.753906 104.558594 178.125 108.007812 177.183594 Z M 108.007812 177.183594 " fill-opacity="1" fill-rule="evenodd"/><path fill="#62ddd6" d="M 231.335938 261.285156 C 232.277344 260.027344 252.988281 228.019531 216.585938 202.289062 C 210.625 202.289062 204.976562 202.601562 199.640625 203.230469 C 167.632812 206.679688 145.039062 217.664062 138.761719 221.117188 C 143.15625 248.730469 161.042969 271.640625 185.832031 281.054688 C 249.851562 305.53125 318.886719 280.425781 357.484375 218.605469 C 382.589844 178.4375 369.410156 134.820312 357.484375 109.085938 C 359.996094 126.972656 361.566406 156.160156 348.070312 160.867188 C 343.992188 162.433594 339.597656 159.609375 336.148438 157.414062 C 335.207031 156.785156 334.265625 156.160156 333.636719 155.84375 C 329.871094 154.277344 325.476562 152.707031 321.398438 151.765625 C 333.324219 160.867188 342.109375 178.125 343.992188 191.933594 C 345.875 203.855469 342.738281 213.585938 335.832031 218.921875 C 328.929688 224.253906 318.574219 225.511719 305.082031 222.058594 C 306.023438 228.335938 305.707031 232.726562 305.707031 232.726562 C 305.707031 233.042969 305.394531 233.667969 305.394531 233.984375 C 304.765625 235.238281 303.199219 236.179688 301.628906 236.179688 C 299.429688 235.867188 298.175781 234.296875 298.175781 232.101562 C 298.175781 231.472656 298.488281 226.453125 296.921875 219.863281 C 294.097656 218.921875 290.957031 217.664062 287.820312 216.410156 C 281.859375 213.898438 276.210938 211.703125 270.5625 210.132812 C 281.542969 228.019531 275.894531 248.105469 275.894531 248.417969 C 275.894531 248.730469 275.582031 249.359375 275.269531 249.671875 C 274.328125 250.929688 272.757812 251.554688 271.1875 250.929688 C 269.304688 250.300781 268.050781 248.417969 268.679688 246.222656 C 268.992188 244.964844 274.953125 223 258.324219 206.679688 C 252.988281 205.425781 247.652344 204.484375 242.320312 203.855469 C 237.925781 203.230469 233.53125 202.914062 229.140625 202.601562 C 260.207031 231.472656 238.238281 265.050781 237.925781 265.675781 C 237.613281 265.992188 237.296875 266.304688 236.984375 266.617188 C 235.730469 267.558594 234.160156 267.558594 232.589844 266.617188 C 231.023438 265.363281 230.394531 263.167969 231.648438 261.285156 Z M 177.988281 243.082031 C 181.441406 236.179688 189.914062 232.726562 196.816406 234.925781 C 200.269531 236.179688 202.777344 238.691406 204.035156 241.828125 C 205.289062 245.28125 205.289062 249.359375 203.40625 252.8125 C 202.152344 255.320312 200.582031 257.203125 198.386719 258.460938 C 194.304688 261.285156 189.285156 262.226562 184.578125 260.65625 C 181.125 259.402344 178.617188 256.890625 177.359375 253.753906 C 176.105469 250.300781 176.105469 246.222656 177.988281 242.769531 Z M 177.988281 243.082031 " fill-opacity="1" fill-rule="evenodd"/><g clip-path="url(#id1)"><path fill="#6c9286" d="M 274.011719 318.082031 C 271.1875 312.75 268.992188 303.960938 274.011719 292.351562 C 257.695312 297.058594 240.75 298.941406 223.488281 297.371094 C 229.765625 305.21875 244.828125 318.710938 274.011719 318.082031 Z M 274.011719 318.082031 " fill-opacity="1" fill-rule="evenodd"/></g><path fill="#6c9286" d="M 285.625 199.777344 C 287.191406 197.894531 289.074219 196.011719 290.644531 194.128906 C 291.898438 192.875 293.15625 191.933594 294.410156 190.675781 C 291.585938 190.363281 289.074219 190.363281 286.566406 190.363281 C 282.484375 190.675781 278.40625 191.304688 274.953125 192.246094 C 268.992188 193.816406 264.285156 196.324219 260.519531 198.523438 L 259.578125 199.148438 L 261.773438 199.777344 C 268.363281 201.347656 274.953125 203.542969 281.859375 206.054688 C 282.800781 203.855469 284.054688 201.972656 285.625 199.777344 Z M 285.625 199.777344 " fill-opacity="1" fill-rule="evenodd"/><g clip-path="url(#id2)"><path fill="#213c49" d="M 202.152344 108.773438 C 203.40625 112.226562 203.40625 116.304688 201.523438 119.757812 C 198.070312 126.660156 189.597656 130.113281 182.695312 127.914062 C 179.242188 126.660156 176.734375 124.148438 175.476562 121.011719 C 174.222656 117.558594 174.222656 113.480469 176.105469 110.027344 C 177.359375 107.519531 178.929688 105.636719 181.125 104.378906 C 185.207031 101.554688 190.226562 100.613281 194.933594 102.183594 C 198.386719 103.4375 200.894531 105.949219 202.152344 109.085938 Z M 162.613281 160.867188 C 126.523438 135.132812 146.921875 103.125 147.863281 101.871094 C 149.117188 99.988281 148.488281 97.789062 146.921875 96.535156 C 145.664062 95.59375 143.78125 95.59375 142.527344 96.535156 C 142.214844 96.847656 141.898438 97.164062 141.585938 97.476562 C 141.273438 97.789062 119.304688 131.367188 150.371094 160.550781 C 145.980469 160.238281 141.585938 159.925781 137.191406 159.296875 C 131.859375 158.667969 126.523438 157.726562 121.1875 156.472656 C 104.558594 140.152344 110.519531 118.1875 110.832031 116.933594 C 111.460938 115.050781 110.207031 112.851562 108.324219 112.226562 C 106.753906 111.910156 105.183594 112.226562 104.242188 113.480469 C 103.929688 113.792969 103.929688 114.109375 103.617188 114.734375 C 103.617188 115.050781 97.96875 135.132812 108.949219 153.019531 C 103.300781 151.136719 97.339844 149.253906 91.691406 146.746094 C 88.554688 145.488281 85.414062 144.234375 82.589844 143.292969 C 81.023438 136.703125 81.335938 131.367188 81.335938 131.054688 C 81.648438 128.855469 80.082031 127.289062 77.882812 126.972656 C 76.3125 126.972656 74.746094 127.601562 74.117188 129.171875 C 73.804688 129.484375 73.804688 130.113281 73.804688 130.425781 C 73.804688 130.425781 73.488281 134.820312 74.429688 141.09375 C 60.9375 137.644531 50.894531 138.898438 43.679688 144.234375 C 36.773438 149.570312 33.636719 159.296875 35.519531 171.222656 C 37.402344 185.027344 46.1875 201.972656 58.113281 211.386719 C 53.71875 210.445312 49.640625 208.878906 45.875 207.308594 C 45.246094 206.996094 44.304688 206.367188 43.363281 205.738281 C 39.914062 203.542969 35.519531 200.71875 31.441406 202.289062 C 17.945312 207.308594 19.515625 236.179688 22.027344 254.066406 C 10.101562 228.648438 -3.078125 184.714844 22.027344 144.546875 C 60.625 82.726562 129.660156 57.621094 193.679688 82.101562 C 218.46875 91.515625 236.355469 114.421875 240.75 142.039062 C 234.160156 145.488281 211.566406 156.472656 179.871094 159.925781 C 174.535156 160.550781 168.886719 160.867188 162.925781 160.867188 Z M 248.59375 142.664062 C 244.203125 111.597656 224.117188 85.550781 196.503906 75.195312 C 186.148438 71.429688 175.792969 68.605469 165.4375 67.039062 C 161.671875 60.445312 144.097656 34.085938 97.652344 38.167969 C 97.027344 38.167969 96.398438 38.480469 95.769531 38.792969 C 95.144531 39.109375 94.515625 40.050781 94.515625 40.675781 C 94.203125 42.246094 94.515625 43.816406 95.769531 44.757812 C 96.085938 45.070312 107.066406 55.425781 95.457031 73.628906 C 95.144531 73.941406 95.144531 74.253906 95.144531 74.570312 C 82.90625 78.960938 71.292969 85.238281 60.308594 93.082031 C 43.363281 105.320312 28.300781 121.324219 16.0625 140.78125 C -16.257812 192.246094 10.101562 248.730469 22.652344 270.699219 C 23.910156 272.894531 26.417969 273.835938 28.929688 272.894531 C 31.441406 271.953125 32.695312 269.441406 32.066406 266.933594 C 28.617188 251.871094 24.851562 212.957031 34.265625 209.503906 C 35.207031 209.503906 38.34375 211.386719 39.597656 212.328125 C 40.855469 213.269531 42.109375 213.898438 43.363281 214.527344 C 50.582031 217.664062 59.367188 220.804688 68.46875 219.546875 C 70.980469 219.234375 72.863281 217.351562 73.175781 214.839844 C 73.488281 212.644531 72.234375 210.445312 70.039062 209.820312 C 58.113281 205.425781 46.1875 187.539062 43.679688 170.59375 C 42.738281 165.257812 42.421875 155.53125 49.011719 150.511719 C 53.09375 147.371094 61.25 145.175781 76.941406 149.882812 C 79.765625 150.824219 82.90625 151.765625 86.042969 153.019531 C 86.984375 153.335938 87.925781 153.960938 89.179688 154.277344 L 90.75 154.902344 C 90.4375 155.84375 89.808594 156.785156 88.867188 158.042969 C 87.613281 159.925781 85.730469 161.808594 83.847656 163.691406 C 80.707031 166.828125 76.941406 169.652344 73.804688 171.535156 C 72.546875 172.164062 71.921875 173.730469 72.234375 175.300781 C 72.546875 176.871094 73.488281 177.8125 75.058594 178.4375 C 86.042969 181.578125 95.769531 180.949219 103.929688 179.066406 C 108.324219 178.125 112.402344 176.554688 116.167969 174.988281 C 119.933594 173.105469 123.386719 171.222656 125.894531 169.652344 C 127.777344 168.398438 129.347656 167.140625 130.289062 166.515625 C 133.113281 167.140625 136.25 167.457031 139.074219 167.769531 C 146.921875 168.710938 154.453125 169.339844 161.355469 169.339844 L 162.925781 169.339844 C 208.742188 169.023438 241.378906 151.765625 246.398438 148.628906 C 248.28125 147.371094 249.222656 145.488281 249.222656 143.292969 Z M 117.738281 163.375 C 118.363281 163.691406 119.304688 163.691406 119.933594 164.003906 C 119.621094 164.316406 119.304688 164.316406 118.992188 164.632812 C 115.226562 166.828125 110.519531 169.339844 104.558594 170.90625 C 101.105469 171.847656 97.027344 172.476562 92.945312 172.789062 C 90.4375 172.789062 87.613281 172.789062 85.101562 172.476562 C 86.355469 171.535156 87.613281 170.28125 88.867188 169.023438 C 90.75 167.457031 92.320312 165.574219 93.886719 163.375 C 95.457031 161.492188 96.710938 159.296875 97.652344 157.101562 C 104.558594 159.609375 111.148438 161.492188 117.738281 163.375 Z M 155.707031 66.097656 C 138.449219 64.839844 121.503906 66.410156 105.183594 71.117188 C 110.207031 59.503906 108.007812 50.71875 105.183594 45.382812 C 134.367188 44.757812 149.117188 57.9375 155.707031 66.097656 Z M 195.246094 111.910156 C 194.621094 110.65625 193.679688 109.714844 192.421875 109.402344 C 188.972656 108.144531 184.578125 110.34375 182.695312 113.792969 C 181.753906 115.363281 181.753906 117.246094 182.382812 118.816406 C 183.007812 120.070312 183.949219 121.011719 185.207031 121.324219 C 187.402344 121.953125 190.226562 121.640625 192.109375 120.070312 C 193.363281 119.128906 194.304688 118.1875 194.933594 116.933594 C 195.875 115.363281 195.875 113.480469 195.246094 111.910156 Z M 195.246094 111.910156 " fill-opacity="1" fill-rule="evenodd"/></g><g clip-path="url(#id3)"><path fill="#213c49" d="M 173.59375 247.789062 C 172.339844 244.339844 172.339844 240.257812 174.222656 236.808594 C 177.675781 229.902344 186.148438 226.453125 193.050781 228.648438 C 196.503906 229.902344 199.011719 232.414062 200.269531 235.550781 C 201.523438 239.003906 201.523438 243.082031 199.640625 246.535156 C 198.386719 249.046875 196.816406 250.929688 194.621094 252.183594 C 190.539062 255.007812 185.519531 255.949219 180.8125 254.378906 C 177.359375 253.125 174.851562 250.613281 173.59375 247.476562 Z M 213.132812 195.699219 C 249.222656 221.429688 228.824219 253.4375 227.882812 254.695312 C 226.628906 256.578125 227.253906 258.773438 228.824219 260.027344 C 230.082031 260.96875 231.964844 260.96875 233.21875 260.027344 C 233.53125 259.714844 233.847656 259.402344 234.160156 259.085938 C 234.472656 258.773438 256.441406 225.195312 225.371094 196.011719 C 229.765625 196.324219 234.160156 196.640625 238.554688 197.265625 C 243.886719 197.894531 249.222656 198.835938 254.558594 200.089844 C 271.1875 216.410156 265.226562 238.375 264.914062 239.632812 C 264.285156 241.515625 265.539062 243.710938 267.421875 244.339844 C 268.992188 244.652344 270.5625 244.339844 271.503906 243.082031 C 271.816406 242.769531 271.816406 242.457031 272.128906 241.828125 C 272.128906 241.515625 277.777344 221.429688 266.796875 203.542969 C 272.445312 205.425781 278.40625 207.308594 284.054688 209.820312 C 287.191406 211.074219 290.332031 212.328125 293.15625 213.269531 C 294.722656 219.863281 294.410156 225.195312 294.410156 225.511719 C 294.097656 227.707031 295.664062 229.277344 297.863281 229.589844 C 299.429688 229.589844 301 228.960938 301.628906 227.394531 C 301.941406 227.078125 301.941406 226.453125 301.941406 226.136719 C 301.941406 226.136719 302.253906 221.746094 301.3125 215.46875 C 314.808594 218.921875 324.851562 217.664062 332.066406 212.328125 C 338.972656 206.996094 342.109375 197.265625 340.226562 185.34375 C 338.34375 171.535156 329.558594 154.589844 317.632812 145.175781 C 322.027344 146.117188 326.105469 147.6875 329.871094 149.253906 C 330.5 149.570312 331.441406 150.195312 332.382812 150.824219 C 335.832031 153.019531 340.226562 155.84375 344.304688 154.277344 C 357.800781 149.253906 356.230469 120.382812 353.71875 102.496094 C 365.644531 127.914062 378.824219 171.847656 353.71875 212.015625 C 315.121094 273.835938 246.085938 298.941406 182.066406 274.464844 C 157.277344 265.050781 139.390625 242.140625 134.996094 214.527344 C 141.585938 211.074219 164.179688 200.089844 195.875 196.640625 C 201.210938 196.011719 206.859375 195.699219 212.820312 195.699219 Z M 127.152344 213.898438 C 131.542969 244.964844 151.628906 271.011719 179.242188 281.367188 C 189.597656 285.132812 199.953125 287.957031 210.308594 289.527344 C 214.074219 296.117188 231.648438 322.476562 278.09375 318.398438 C 278.71875 318.398438 279.347656 318.082031 279.976562 317.769531 C 280.601562 317.457031 281.230469 316.515625 281.230469 315.886719 C 281.542969 314.316406 281.230469 312.75 279.976562 311.808594 C 279.660156 311.492188 268.679688 301.136719 280.289062 282.9375 C 280.601562 282.621094 280.601562 282.308594 280.601562 281.996094 C 292.839844 277.601562 304.453125 271.324219 315.4375 263.480469 C 332.382812 251.242188 347.445312 235.238281 359.683594 215.78125 C 392.003906 164.316406 365.644531 107.832031 353.09375 85.867188 C 351.835938 83.667969 349.328125 82.726562 346.816406 83.667969 C 344.304688 84.609375 343.050781 87.121094 343.679688 89.632812 C 347.128906 104.695312 350.894531 143.605469 341.480469 147.058594 C 340.539062 147.058594 337.402344 145.175781 336.148438 144.234375 C 334.890625 143.292969 333.636719 142.664062 332.382812 142.035156 C 325.164062 138.898438 316.378906 135.761719 307.277344 137.015625 C 304.765625 137.328125 302.882812 139.210938 302.570312 141.722656 C 302.253906 143.921875 303.511719 146.117188 305.707031 146.746094 C 317.632812 151.136719 329.558594 169.023438 332.066406 185.96875 C 333.007812 191.304688 333.324219 201.03125 326.734375 206.054688 C 322.652344 209.191406 314.496094 211.386719 298.804688 206.679688 C 295.980469 205.738281 292.839844 204.796875 289.703125 203.542969 C 288.761719 203.230469 287.820312 202.601562 286.566406 202.289062 L 284.996094 201.660156 C 285.308594 200.71875 285.9375 199.777344 286.878906 198.523438 C 288.132812 196.640625 290.015625 194.757812 291.898438 192.875 C 295.039062 189.734375 298.804688 186.910156 301.941406 185.027344 C 303.195312 184.402344 303.824219 182.832031 303.511719 181.261719 C 303.195312 179.695312 302.253906 178.753906 300.6875 178.125 C 289.703125 174.988281 279.976562 175.613281 271.816406 177.496094 C 267.421875 178.4375 263.34375 180.007812 259.578125 181.578125 C 255.8125 183.460938 252.359375 185.34375 249.851562 186.910156 C 247.96875 188.167969 246.398438 189.421875 245.457031 190.050781 C 242.632812 189.421875 239.496094 189.109375 236.671875 188.792969 C 228.824219 187.851562 221.292969 187.226562 214.390625 187.226562 L 212.820312 187.226562 C 167.003906 187.539062 134.367188 204.796875 129.347656 207.9375 C 127.464844 209.191406 126.523438 211.074219 126.523438 213.269531 Z M 258.007812 193.1875 C 257.382812 192.875 256.441406 192.875 255.8125 192.558594 C 256.125 192.246094 256.441406 192.246094 256.753906 191.933594 C 260.519531 189.734375 265.226562 187.226562 271.1875 185.65625 C 274.640625 184.714844 278.71875 184.085938 282.800781 183.773438 C 285.308594 183.773438 288.132812 183.773438 290.644531 184.085938 C 289.390625 185.027344 288.132812 186.285156 286.878906 187.539062 C 284.996094 189.109375 283.425781 190.992188 281.859375 193.1875 C 280.289062 195.070312 279.035156 197.265625 278.09375 199.464844 C 271.1875 196.953125 264.597656 195.070312 258.007812 193.1875 Z M 220.039062 290.46875 C 237.296875 291.722656 254.242188 290.152344 270.5625 285.445312 C 265.539062 297.058594 267.738281 305.84375 270.5625 311.179688 C 241.378906 311.808594 226.628906 298.628906 220.039062 290.46875 Z M 180.5 244.652344 C 181.125 245.90625 182.066406 246.847656 183.324219 247.164062 C 186.773438 248.417969 191.167969 246.222656 193.050781 242.769531 C 193.992188 241.199219 193.992188 239.316406 193.363281 237.75 C 192.738281 236.492188 191.796875 235.550781 190.539062 235.238281 C 188.34375 234.609375 185.519531 234.925781 183.636719 236.492188 C 182.382812 237.433594 181.441406 238.375 180.8125 239.632812 C 179.871094 241.199219 179.871094 243.082031 180.5 244.652344 Z M 180.5 244.652344 " fill-opacity="1" fill-rule="evenodd"/></g></svg>